<?xml version="1.0" standalone="no"?>
<!DOCTYPE svg PUBLIC "-//W3C//DTD SVG 1.1//EN" "http://www.w3.org/Graphics/SVG/1.1/DTD/svg11.dtd" >
<svg xmlns="http://www.w3.org/2000/svg">
<metadata></metadata>
<defs>
<font id="OptimusPrincepsRegular" horiz-adv-x="739" >
<font-face units-per-em="2048" ascent="1638" descent="-410" />
<missing-glyph horiz-adv-x="499" />
<glyph horiz-adv-x="0" />
<glyph horiz-adv-x="2048" />
<glyph horiz-adv-x="552" d="M45 1634q0 -47 79 -70q52 -16 103.5 -16t96.5 8.5t84 27.5q89 43 100 128q-100 -115 -214 -115t-190 115q-59 -35 -59 -78z" />
<glyph horiz-adv-x="253" d="M45 1635q0 -34 19.5 -69.5t55.5 -35.5t62.5 22.5t26.5 58.5t-24.5 65.5t-60.5 29.5t-57.5 -18.5t-21.5 -52.5z" />
<glyph horiz-adv-x="411" d="M45 1597q0 -41 24.5 -69.5t54.5 -28.5q53 0 89 25q98 7 139 72q15 22 15 64t-38 73.5t-81 31.5t-78 -12t-62 -33q-63 -49 -63 -123zM115 1643q0 37 27.5 59t61.5 22t59.5 -29.5t25.5 -60.5t-21.5 -55.5t-54.5 -24.5t-65.5 26t-32.5 63z" />
<glyph unicode="&#xa;" horiz-adv-x="550" d="M45 1532q59 45 117.5 91t124.5 85q-27 43 -62 43t-59.5 -26.5t-45 -62.5t-39 -73t-36.5 -57zM246 1532q25 18 57.5 44t67.5 52q84 60 135 64q-30 69 -74 69q-47 0 -150 -173q-22 -38 -36 -56z" />
<glyph horiz-adv-x="401" d="M45 -75q0 -40 14.5 -67.5t38.5 -47.5q48 -43 102 -43q93 0 156 47q-79 -20 -134 22q-60 47 -60 112.5t33.5 109.5t80.5 67q-152 -41 -208 -126q-23 -34 -23 -74z" />
<glyph horiz-adv-x="528" d="M45 1671q120 -98 223 -162q125 103 215 217q-30 -9 -82.5 -47.5t-77 -54.5t-47.5 -20q-53 16 -93 57t-83 74q-40 -35 -55 -64z" />
<glyph />
<glyph />
<glyph unicode=" "  horiz-adv-x="499" />
<glyph unicode="&#x09;" horiz-adv-x="499" />
<glyph unicode="&#xa0;" horiz-adv-x="499" />
<glyph unicode="!" horiz-adv-x="270" d="M45 1262.5q0 -44.5 2 -116t7 -160.5t11.5 -184t15.5 -179q27 -252 58 -242q6 2 6 8l78 1026l-10 8q-51 -8 -92 -46q-76 -70 -76 -114.5zM47 217.5q0 -28.5 5 -48t16 -35.5q28 -40 64 -40t64.5 25.5t28.5 64.5t-26.5 70t-64.5 31t-62.5 -19.5t-24.5 -48z" />
<glyph unicode="&#x22;" horiz-adv-x="468" d="M45 1554q0 -147 14.5 -262t17.5 -149.5t6 -60.5q5 -46 43 -46t38 62v10q0 37 5 73t11 94q21 203 21 292q0 31 -23.5 53t-55.5 22t-54.5 -26.5t-22.5 -61.5zM268 1530q0 -103 14.5 -228t17.5 -159.5t6 -60.5q5 -46 43 -46t38 62v10q0 37 5 73t11 94q21 203 21 292 q0 31 -23.5 53t-57.5 22t-54.5 -26.5t-20.5 -85.5z" />
<glyph unicode="#" horiz-adv-x="1013" d="M45 573q0 -10 8 -10l142 -10q-4 -29 -8.5 -49.5t-12.5 -74.5q-14 -92 -39 -300q0 -8 6 -8l54 -15q6 -2 10 7q8 29 15 62.5t20 84.5q46 193 59 293l305 -12l-57 -406q0 -10 8 -10l51 -8q4 0 8 4q43 104 79 351q5 34 14 67l155 -4q8 0 8 6l25 143q0 10 -8 10q-37 0 -75 -1 t-73 -1l56 293l145 -4q8 0 8 4l21 141q0 10 -8 11h-142q45 186 66 381q0 6 -6 6l-97 16q-8 0 -8 -6q-20 -100 -38.5 -199.5t-39.5 -199.5q-76 -2 -146.5 -5.5t-146.5 -5.5q61 391 61.5 397.5t-5.5 6.5l-92 12q-10 0 -11 -6q-20 -104 -38.5 -207.5t-38.5 -208.5l-134 -4 q-8 0 -8 -6l-16 -88q0 -10 8 -10q35 -2 66.5 -3t64.5 -3q-14 -84 -24.5 -163t-24.5 -165l-143 -6q-8 0 -9 -6zM326 680q35 184 61 317l285 -12q-12 -78 -24.5 -146.5t-24.5 -146.5q-59 -10 -145 -10h-109q-20 0 -43 -2z" />
<glyph unicode="$" horiz-adv-x="755" d="M45 252q0 -35 6 -35q135 -75 254 -90q-4 -16 -4 -48.5t-10 -82.5q0 -10 8 -10l20 -2q35 0 44.5 32.5t12.5 55.5q6 46 11 59q219 19 298 195q26 57 26 124.5t-20.5 126t-57.5 106.5q-76 99 -195 144q2 14 2 25q0 10 5 67.5t13.5 159t24.5 203.5q59 -10 106.5 -51 t47.5 -103q0 -12 -3 -25t4 -16.5t9 3.5q27 69 27 176v22q0 33 -6 33q-88 43 -146 37q-8 0 -17 -1t-18 -1q4 20 5 35q0 56 10 106q0 10 -16.5 10t-30 -9t-21.5 -26q-12 -24 -12 -71v-53q-143 4 -233 -76q-97 -86 -97 -217t76 -222.5t188 -132.5q-10 -123 -18 -245.5 t-21 -245.5q-95 0 -157 78q-56 72 -56 168q0 14 -12 6l-24 -17q-23 -53 -23 -163v-29zM219 1104q0 80 55.5 127t135.5 49q-25 -201 -37 -403q-66 33 -110 90t-44 137zM391 213q9 130 15 203t10 127.5t8 107.5q68 -35 112 -97t44 -143t-55.5 -133.5t-133.5 -64.5z" />
<glyph unicode="%" horiz-adv-x="1343" d="M45 1065.5q0 -71.5 22.5 -130t62.5 -107.5q89 -107 206 -107q120 0 202 113q78 108 78 231t-94 199q79 12 202.5 18t131.5 7t18 1q-104 -238 -210.5 -472t-172 -378.5t-89 -199t-48.5 -107.5q-4 -12 8 -12l27 -2q54 -5 88 26q80 153 223.5 512t185.5 463.5t60 149.5 t25.5 61.5t11.5 26.5l-8 12q-27 -4 -76 -6t-118.5 -7t-161 -10.5t-174.5 -12.5q-188 -16 -228 -31q-76 -35 -124 -100.5t-48 -137zM164 1065q0 139 93 193q32 18 75 18q82 0 126 -74q38 -65 38 -143t-28 -151.5t-93 -110.5q-98 4 -158 90q-53 77 -53 178zM756 434 q0 -124 70 -212q75 -93 196 -93q123 0 202 94q74 88 74 211q0 57 -17 111.5t-49 95.5q-72 92 -190 92q-126 0 -208 -87q-78 -84 -78 -212zM858 464q0 87 43 149.5t127 62.5q78 0 120 -72q38 -63 38 -145q0 -128 -68 -219q-22 -31 -55 -52q-90 19 -149 107q-56 82 -56 169z " />
<glyph unicode="&#x26;" horiz-adv-x="1456" d="M45 499.5q0 -102.5 38 -171t99 -116.5q127 -101 293 -101q111 0 209 53t184 117q102 -88 151 -112q91 -44 202 -44h57q109 0 133 12l-4 17q-223 28 -434 239q84 109 149 389q0 4 -4 9q-71 40 -146 40q-120 0 -120 -20q0 -4 6 -6q135 -19 135 -131q0 -104 -86 -242 q-573 501 -573 727q0 86 56 141.5t142 55.5q94 0 162 -58q70 -62 66 -149l-2 -33q0 -6 6 -7t10 5q27 72 27 146t-7.5 104.5t-13.5 30.5q-94 37 -188.5 37t-162 -26t-121.5 -72q-120 -102 -120 -244q0 -112 97 -209q-113 -94 -156 -156q-84 -123 -84 -225.5zM186 526 q0 155 129 293q239 -291 496 -493q-128 -142 -283 -142q-136 0 -239 103t-103 239z" />
<glyph unicode="'" horiz-adv-x="249" d="M45 1530q0 -110 15 -227q16 -136 26 -230q2 -16 14.5 -26.5t33.5 -10.5q32 0 32 60v12q12 91 14 131l17 320q8 0 8 20.5t-24.5 41.5t-57.5 21t-55.5 -26.5t-22.5 -85.5z" />
<glyph unicode="(" horiz-adv-x="471" d="M45 732.5q0 -105.5 28.5 -204t78.5 -187.5q98 -177 260 -316l12 10q-252 343 -252 710q0 193 69.5 375.5t182.5 335.5q4 6 -2 10t-10 0q-258 -238 -338 -526q-29 -102 -29 -207.5z" />
<glyph unicode=")" horiz-adv-x="481" d="M47 35q-4 -4 2 -9.5t10 -0.5q263 230 347 523q30 103 30 210.5t-28.5 207t-78.5 189.5q-93 168 -261 320q-4 4 -10.5 -0.5t-2.5 -10.5q252 -363 252 -721q0 -368 -260 -708z" />
<glyph unicode="*" horiz-adv-x="579" d="M45 1346l8 -115q0 -8 8 -8l35 -2q8 -2 23.5 -2t32.5 2q64 7 92 -11q-8 -8 -18.5 -16t-26.5 -21t-40 -35t-43 -44q-48 -52 -48 -67t6 -15q82 -17 121 -17h6q8 0 8 6q20 115 80 179q4 -10 10 -22.5t13 -36.5t17.5 -48t21.5 -45q25 -47 50 -47q33 0 60 69l10 25 q-6 23 -27.5 39t-45.5 32q-60 38 -66 68q47 0 107 6.5t69.5 6.5t19.5 2l7 10q-13 89 -54 115q-6 4 -14 -4t-26.5 -25.5t-38.5 -32.5q-51 -35 -83 -35h-4q0 14 6.5 26.5t13.5 37.5q23 82 23 115q0 57 -16 57q-72 -12 -123 -51q-6 -6 -2 -8l19 -50q10 -29 21 -57.5t11 -46.5 t-2 -25q-20 10 -55 34t-72 46.5t-56 22.5t-32 -4q-6 0 -6 -8z" />
<glyph unicode="+" horiz-adv-x="1525" d="M45 803q0 -8 8 -8h660v-678q0 -8 8 -8h76q8 0 8 8v678h668q8 0 8 8v78q0 8 -8 8h-668v682q0 8 -8 8h-76q-8 0 -8 -8v-682h-660q-8 0 -8 -8v-78z" />
<glyph unicode="," horiz-adv-x="268" d="M45 252q4 -6 12.5 -17.5t16.5 -23.5q28 -42 28 -73t-28 -109v2q-24 -47 -14 -52.5t14 -1.5q149 149 149 262q0 72 -80 113q-54 -16 -87 -68q-11 -16 -11 -32z" />
<glyph unicode="-" horiz-adv-x="622" d="M45 635q0 -12 10 -8q101 39 289 65q150 25 234 49v17q-30 10 -228 10h-270q-8 0 -8 -6q-18 -52 -27 -127z" />
<glyph unicode="." horiz-adv-x="276" d="M45 240.5q0 -35.5 20.5 -73.5t59.5 -38t72.5 27.5t33.5 67.5t-28.5 75t-69.5 35t-64.5 -29t-23.5 -64.5z" />
<glyph unicode="/" horiz-adv-x="958" d="M45 168q10 -25 31.5 -43.5t36 -20.5t18.5 2q221 355 782 1272l-2 13l-73 30q-6 4 -11 -4q-86 -132 -204 -324q-287 -467 -576 -919z" />
<glyph unicode="0" horiz-adv-x="987" d="M45 774q0 -246 119 -440q61 -98 153.5 -163t219.5 -69q191 93 303 312q102 200 102 422q0 102 -23.5 196t-72.5 169q-109 167 -318 167q-235 0 -366 -186q-117 -164 -117 -408zM199 823q0 292 131 418q51 49 138 49t148.5 -51t97.5 -127t49 -164t13 -161t-11 -161.5 t-37 -174.5q-62 -204 -179 -271q-179 58 -271 262q-79 177 -79 381z" />
<glyph unicode="1" horiz-adv-x="673" d="M47 1122.5q2 -6.5 19.5 -3.5t42 14.5t50.5 22.5q71 30 93.5 30t40.5 -19v-886q0 -69 -43 -93q-34 -19 -76 -23q-69 -5 -83.5 -9t-13.5 -11.5t7 -7.5q225 -10 539 -10l6 12q-15 24 -55.5 27.5t-62.5 7.5t-38 16q-39 31 -39 101v233l4 465v322q0 31 -4 59q0 12 -10 8 q-212 -110 -375 -245q-4 -4 -2 -10.5z" />
<glyph unicode="2" horiz-adv-x="878" d="M47 147q-8 -12 6 -12h678q47 0 78 122q22 88 22 163l-16 2q-62 -158 -203 -176q-47 -6 -104 -6h-254q-12 0 -23 2q202 137 363 356q182 248 182 457q0 173 -140 249q-110 58 -292 58q-99 0 -227 -55q-4 0 -6 -20.5t-2 -58.5q0 -96 24 -173q2 -6 9.5 -5t7.5 7q0 95 54 163 q54 70 152 70q116 0 194 -87q77 -86 77 -183.5t-38 -183.5t-99 -170q-88 -123 -205 -250q-164 -178 -238 -269z" />
<glyph unicode="3" horiz-adv-x="831" d="M47 211l2 -45q0 -2 4 -6q96 -76 223 -76q86 0 176.5 38t165 101.5t121.5 146.5t47 157.5t-22.5 122.5t-59.5 84q-68 67 -188 106q83 68 114 111q62 85 62 153.5t-19.5 116t-54.5 81.5q-73 74 -200.5 74t-302.5 -69q-4 0 -8.5 -37t-4.5 -111t20 -73q7 1 7 8 q10 86 66.5 142t144.5 56q94 0 158 -58q67 -62 67 -136t-18.5 -113t-46.5 -67q-31 -31 -94 -60q-102 -46 -115.5 -63t-3.5 -21q130 -27 229 -105q117 -92 117 -212q0 -112 -109 -200q-100 -81 -219 -81q-149 0 -193 144q-12 42 -13 70t-7 29q-17 3 -33 -76t-12 -132z" />
<glyph unicode="4" horiz-adv-x="993" d="M53 494h563v-170q0 -139 -54 -155q-29 -8 -84 -12q-15 -1 -24 -15.5t5 -14.5h145l305 2q6 0 8.5 5t-4.5 9q-46 25 -80 32t-45.5 12.5t-18.5 19.5q-13 26 -13 85v77q0 18 2 39q5 53 2 88h35q107 0 138 31q15 15 15 37.5t-4 43.5q0 10 -8 6q-49 -18 -99.5 -18t-78.5 14v760 q0 6 -5 8t-10 -2q-418 -439 -627 -750q-89 -132 -63 -132zM184 602q111 137 214.5 269.5t213.5 269.5v-539h-428z" />
<glyph unicode="5" horiz-adv-x="770" d="M45 186q0 -53 8 -53q92 -31 186.5 -31t178.5 30t148 84q141 118 141 304q0 208 -141 348q-139 136 -347 136v8q0 83 17 209h350q45 0 58 -26t20.5 -53.5t16.5 -37.5t13 -10t6 6q25 110 25 233l-8 8q-167 -14 -477 -14h-54q-8 0 -8 -6q-36 -202 -45 -442q0 -8 8 -9 q174 -23 299 -122q150 -118 150 -277q0 -115 -104 -203q-97 -82 -218 -82q-96 0 -146 66q-46 60 -42 160q0 6 -7 7q-28 4 -28 -186v-47z" />
<glyph unicode="6" horiz-adv-x="884" d="M45 541q0 -191 141 -328q142 -139 330 -139q154 0 243 130q81 118 81 268q0 68 -17.5 135t-53.5 121q-83 124 -218 124q-104 0 -236 -94q-4 -4 -2 -11.5t20 0.5q56 25 120 25t112.5 -29.5t81.5 -76.5q66 -96 66 -226q0 -106 -43 -183q-52 -91 -150 -91q-141 0 -244 120 q-96 114 -96 245t42 247.5t110 221.5q138 212 340 348q6 4 2 11t-10 3q-247 -105 -425 -328q-194 -241 -194 -493z" />
<glyph unicode="7" horiz-adv-x="837" d="M45 1134.5q0 -44.5 1 -59t11 -31.5q4 -4 9.5 -3t5.5 8q11 106 118 151q76 33 226 33l229 -8q12 0 19 -2q-442 -748 -494 -1108q0 -14 14 -10.5t40 13t50 22.5q60 30 74 63q31 82 45 149q14 68 43 168q127 368 357 795l-9 12l-395 -8q-183 0 -309 29q-10 4 -10 -7 q-4 -44 -11 -80q-14 -82 -14 -126.5z" />
<glyph unicode="8" horiz-adv-x="858" d="M45 427q0 -69 34 -131.5t87 -106.5q110 -91 262 -91q156 0 272 121q113 119 113 277q0 121 -69.5 200.5t-180.5 116.5q80 41 137.5 118t57.5 151.5t-25.5 126t-66.5 89.5q-87 82 -205 82q-134 0 -242 -108t-108 -244q0 -94 58 -157.5t142 -94.5q-182 -76 -245 -228 q-21 -52 -21 -121zM186 481.5q0 116.5 62.5 189t173.5 72.5q109 0 182 -93q66 -84 66 -196q0 -48 -14.5 -96.5t-41.5 -87.5q-64 -90 -153 -90q-124 0 -201 94q-74 91 -74 207.5zM248 1122q0 82 62 132q58 49 141 49q82 0 133 -67q47 -63 47 -140.5t-37 -142t-98 -99.5 q-102 0 -176 83q-72 82 -72 185z" />
<glyph unicode="9" horiz-adv-x="860" d="M45 997q0 -131 69 -227q75 -106 205 -106q126 0 254 100q6 4 2 10t-21 -4q-62 -35 -123.5 -35t-111 33t-83.5 83q-68 102 -68 210t42 166.5t129 58.5t146.5 -26.5t100.5 -73.5q82 -94 82 -229.5t-38 -254t-104 -228.5q-138 -231 -333 -355q-6 -4 -2 -11.5t10 -3.5 q248 104 424 322q86 106 138 231t52 236.5t-35 199t-96 155.5q-137 151 -322 151q-145 0 -236 -133q-81 -118 -81 -269z" />
<glyph unicode=":" horiz-adv-x="276" d="M45 293q0 -37 20.5 -74t59.5 -37t72.5 27.5t33.5 67.5t-28.5 74t-69.5 34t-64.5 -27.5t-23.5 -64.5zM45 855q0 -38 20.5 -75t60.5 -37t72.5 29t32.5 69t-28.5 73.5t-70.5 33.5t-64.5 -27.5t-22.5 -65.5z" />
<glyph unicode=";" horiz-adv-x="276" d="M45 855q0 -38 19.5 -75t60.5 -37t73.5 29t32.5 69t-28.5 73.5t-70.5 33.5t-64.5 -27.5t-22.5 -65.5zM61 -2q-8 -12 7 -12q58 0 108 99q41 79 41 164.5t-80 102.5q-20 -10 -48 -28.5t-28 -38t5.5 -31.5t13.5 -30q24 -56 24 -92q0 -56 -43 -134z" />
<glyph unicode="&#x3c;" horiz-adv-x="468" d="M47 803q159 -204 301 -338q8 -8 12 2q40 53 64 70v12l-54 54q-200 200 -200 218q0 13 119 156t126 157.5t0 18.5t-12 0q-235 -209 -356 -342q-4 -4 0 -8z" />
<glyph unicode="=" horiz-adv-x="622" d="M45 526q0 -12 10 -8q70 27 143.5 41t139.5 25q180 32 240 49v16q-30 10 -228 10h-270q-8 0 -8 -6q-19 -54 -27 -127zM45 668q0 -12 10 -9q91 35 219 56q218 37 304 61v17q-30 10 -228 10h-270q-8 0 -8 -6q-18 -52 -27 -129z" />
<glyph unicode="&#x3e;" horiz-adv-x="473" d="M51 1081q-8 -8 1 -16t51 -49t86 -87q114 -119 114 -129.5t-39 -59t-83 -102.5q-111 -137 -119.5 -153t-2 -20t10.5 0q121 93 322 305q18 19 36 37v8q-102 139 -301 338q-8 8 -12 -2q-30 -44 -64 -70z" />
<glyph unicode="?" horiz-adv-x="727" d="M45 1254q0 -66 49 -142q2 -4 6 -4t9 22.5t18.5 60.5t34.5 69q45 67 129 67q235 0 235 -162q0 -140 -167 -385q-42 -61 -71 -104q-67 -97 -67 -114.5t14.5 -43.5t36.5 -49q54 -55 97 -55q6 0 7 5t-3 9q-41 27 -41 78q0 82 149 264q99 128 132 184q69 120 69 193 t-29.5 126.5t-76.5 92.5q-100 82 -224 82q-112 0 -177.5 -35t-97.5 -74t-32 -85zM254 207q0 -66 46 -101q15 -12 44 -12t58.5 25.5t29.5 64.5t-27.5 70t-65.5 31q-85 0 -85 -78z" />
<glyph unicode="@" horiz-adv-x="1433" d="M37 680q-18 -135 21.5 -244.5t120.5 -185.5q166 -156 435 -156q153 3 381 80l4 2v2q-2 8 -7 33t-13 22q-149 -69 -311 -73q-250 0 -390 158q-137 156 -104 411q36 252 205 399q171 150 424 150q240 0 363 -136q125 -140 91 -380q-27 -187 -129 -270q-38 -31 -89.5 -31 t-77 33.5t-17.5 96t23.5 138.5t24.5 128.5t15.5 78t10.5 47.5q-2 2 -2 4q-96 49 -191.5 49t-160 -30.5t-113.5 -81.5q-100 -102 -121 -258q-21 -174 91 -246q38 -25 93 -25h27q41 29 87 59.5t89 61.5q25 -57 74 -90t119.5 -32t137 39t116.5 99q104 123 123.5 269.5 t-22.5 248t-125 168.5q-160 128 -437 128q-305 -4 -513 -184q-214 -185 -253 -482zM549 743q9 75 46.5 126t70 72.5t75.5 21.5t77 -32t50 -69l-37 -287q-72 -63 -130 -63t-87.5 21.5t-45.5 55.5q-33 67 -19 154z" />
<glyph unicode="A" horiz-adv-x="1617" d="M53 0q161 14 234 14l174 -10q18 0 35 -2v16q-111 14 -111 72q0 81 117 396q26 71 41 106h434l201 -522l-111 -52q-6 -4 -4 -11t10 -5t23 2q14 0 44 3q92 9 148 9q63 0 106 -5q51 -6 91 -6q18 0 33 1l49 2q6 0 6 8t-6 9q-70 6 -121 33.5t-86 91.5q-188 353 -414 956 q-61 164 -94 256q-37 102 -68 182q-2 6 -8 6t-8 -6q-156 -420 -219 -601q-185 -525 -281 -765q-55 -136 -217 -162q-5 -2 -5 -7q0 -9 7 -9zM569 680q43 121 79 237.5t60.5 191.5t34 102.5t19.5 56.5l180 -588h-373z" />
<glyph unicode="B" horiz-adv-x="1132" d="M47 1513q16 -23 35.5 -26.5t39 -5.5t35 -5t27.5 -14q27 -22 27 -86v-1157q0 -100 -17.5 -128t-45 -43t-74.5 -30q-6 -2 -5 -9t7 -7l397 -6h131q198 0 337 122q146 127 146 326q0 152 -97 264q-93 108 -240 154q190 179 190 346q0 153 -142 245q-121 79 -282 79 q-96 0 -196.5 -10.5t-151.5 -10.5t-85 7q-39 9 -39 1q0 -3 3 -6zM397 225v582h15q59 0 124.5 -4t120.5 -32t101.5 -70t80 -93t52 -109.5t18.5 -118.5t-20.5 -117.5t-58.5 -102.5q-85 -99 -209 -99q-75 0 -127 33t-74.5 62.5t-22.5 68.5zM399 889v559q73 20 123.5 20 t99 -23.5t80.5 -63.5q68 -83 68 -188t-25.5 -161.5t-72.5 -88.5q-79 -54 -260 -54h-13z" />
<glyph unicode="C" horiz-adv-x="1458" d="M45 739q0 -335 219 -545q103 -100 244 -154t348.5 -54t486.5 49q6 0 7 4q63 124 63 258q0 76 -13 79q-5 1 -9 -5q-79 -170 -163 -236q-100 -78 -265 -78t-299 65.5t-231 174.5t-151.5 250t-54.5 289.5t46 267.5t130 204q175 177 467 177q185 0 312 -95q131 -98 164 -278 q2 -6 7 -6t7 6q35 236 41 379q0 8 -8 8q-99 8 -192 21q-230 34 -308 34t-157 -8t-156 -28q-180 -45 -271 -134q-190 -184 -247 -468q-17 -89 -17 -177z" />
<glyph unicode="D" horiz-adv-x="1613" d="M48 1514q9 -15 42.5 -22t52.5 -11t35 -15q33 -22 33 -86v-1149q0 -97 -19 -127q-33 -54 -118 -73q-6 -2 -5 -9.5t7 -7.5q22 1 48 1q80 0 200 -9q266 -20 418.5 -20t312 48t274.5 146q240 206 240 604v23l-4 49v25q0 135 -69 253.5t-176.5 207t-239.5 138.5t-259 50 q-62 0 -169 -5t-162.5 -8.5t-105.5 -3.5q-82 0 -150 5q-93 8 -181 8q-8 0 -8 -5q0 -3 3 -7zM397 309v1104q107 35 249.5 35t282.5 -51t241 -147q214 -203 214 -543q0 -312 -191 -480q-181 -159 -499 -159q-166 0 -213 32.5t-65.5 80.5t-18.5 128z" />
<glyph unicode="E" horiz-adv-x="993" d="M47 1520q-1 -2 -1 -3q0 -13 46 -29q19 -7 38 -11t34.5 -9.5t27.5 -15.5q27 -21 27 -76v-1157q0 -89 -19.5 -126.5t-46 -55t-71.5 -19.5v-16q66 4 131 4h131l258 -2q66 -2 131 -2h131l31 6q6 6 10 5t4 7l6 48q8 49 15.5 99t17.5 99l-14 2q-23 -94 -93.5 -145t-166.5 -51 q-126 0 -218 74q-30 24 -50 59v569h130t102 -3q111 -8 132 -34q23 -23 30 -52q13 -53 23 -64t15.5 -9t5.5 9l37 284q0 12 -13 8q-36 -11 -61 -22q-65 -31 -82 -31h-322v580h220q92 0 151.5 -32t67.5 -132q0 -6 7 -7t9 5q2 10 4 17t9 39q28 128 36 204q0 9 -5 9q-3 0 -7 -2 q-12 -7 -48 -11t-86 -6q-100 -4 -273.5 -4t-309.5 4h-125q-4 0 -6 -4z" />
<glyph unicode="F" horiz-adv-x="983" d="M47 1518q-1 -1 -1 -2q0 -4 5 -7q34 -17 68 -25.5t49.5 -14t27.5 -16.5q23 -22 23 -85v-1157q0 -108 -15 -133q-25 -43 -124 -60q-6 -2 -5 -9t7 -7h27q61 0 105 5q79 9 124 9l229 -14h19v16h-8q-69 0 -122 62q-53 63 -53 137v557h236q88 0 137 -36q47 -35 47 -121v-7 q0 -6 7.5 -7t9.5 5q33 150 41 297q0 6 -5.5 8t-15.5 -8q-47 -47 -82 -47h-375v553q40 0 102 8q132 17 171 17q90 0 141 -38t51 -132q0 -6 7.5 -7.5t9.5 5.5q33 162 45 233l6 35q1 1 1 2q0 3 -4 7q-2 2 -5 2q-7 0 -22 -7q-49 -23 -179 -23l-86 3l-68 2h-145q-186 0 -373 6 q-6 0 -8 -6z" />
<glyph unicode="G" horiz-adv-x="1591" d="M92 805q0 -324 190 -555q196 -238 513 -262q92 -6 166.5 -6t137 3t125.5 14q137 24 228 93q4 4 4 6v518q0 59 42 83t95 34l-2 17q-205 10 -485 10q-6 0 -8 -5t4 -10q26 -16 65 -27t70 -28.5t31 -66.5v-461q-79 -82 -246.5 -82t-303.5 60.5t-235.5 164t-157 241.5 t-57.5 287.5t52.5 269.5t142.5 205q190 179 475 179q282 0 408 -187q43 -63 59 -151q2 -6 9 -5t7 7q36 219 43 340q0 8 -24.5 10t-64.5 8.5t-105 15.5q-212 29 -364 29t-303.5 -48t-265.5 -143q-245 -204 -245 -558z" />
<glyph unicode="H" horiz-adv-x="1660" d="M45 1499q57 -2 107.5 -33.5t50.5 -95.5v-1180q0 -94 -19 -117q-29 -36 -121 -53q-6 -2 -5 -9t8 -7l51 -2q37 -2 71 -2h70l141 2q43 2 86 2h84q6 0 6 8t-6 8q-182 16 -182 197v586h860v-582q0 -112 -49 -169q-18 -21 -36 -21q-57 0 -55 -17q1 -8 7 -8q106 4 231 4t269 -8 l2 16q-96 16 -139 63.5t-43 145.5v1137q0 72 37.5 93.5t99.5 33.5q6 2 5 9t-7 7q-111 -6 -215 -6t-269 10q-6 0 -7 -7t5 -9l41 -12q25 -8 47.5 -14.5t40.5 -18.5q35 -24 35 -88v-475h-858v485q0 57 41 89t96 34q6 0 6 8t-6 8l-45 -2q-94 -4 -194.5 -4t-241.5 11v-17z" />
<glyph unicode="I" horiz-adv-x="612" d="M45 1508.5q0 -7.5 6 -9.5q59 -8 103.5 -34.5t44.5 -94.5v-1149q0 -150 -140 -203q-6 -4 -5 -10t7 -6q156 4 259 4h149q49 0 98 -2v16q-100 10 -141 57.5t-41 151.5v1143q0 89 83 115q26 8 56 14q6 3 4 11q-2 7 -6 6h-2q-103 -15 -226.5 -15t-242.5 13q-6 0 -6 -7.5z" />
<glyph unicode="J" horiz-adv-x="591" d="M-53 -485q-2 -3 -2 -6t2 -7t6 -4q2 0 4 2q192 92 315 252q136 176 136 377v1235q0 70 39 93.5t98 35.5l-2 16h-310q-106 0 -170 7q-6 0 -8 -5.5t13 -14.5q17 -11 49 -21.5t48.5 -17.5t28.5 -19q27 -24 27 -76v-1212q0 -214 -65 -354q-58 -126 -209 -281z" />
<glyph unicode="K" horiz-adv-x="1581" d="M46 1507q0 -6 5 -8q100 -15 145 -85q15 -25 15 -56v-1133q0 -109 -15 -137q-28 -51 -124 -68q-6 -2 -5 -9t7 -7q142 14 243 14q63 0 252 -12q6 0 8.5 6t-4.5 11q-44 23 -79.5 33.5t-51.5 19t-27.5 25t-15.5 47t-4 148.5t2 232.5t3 156.5t1 83q59 -57 179 -193 t211.5 -236.5t186.5 -182.5q219 -189 384 -189q92 0 174 53l-4 15q-191 0 -532 344q-110 111 -213 223t-148 163.5t-84 86.5q70 63 165.5 169t168 181.5t145.5 139.5q167 147 291 161q6 2 6 9t-6 8l-61 2l-95 2h-118t-121 4q-12 0 -2 -19.5t10 -54.5t-33 -88t-84 -112 q-81 -93 -182 -187q-194 -182 -236 -233l-6 522q0 59 40 100t95 45q6 0 7 8q0 8 -7 9l-26 2q-42 2 -78 2q-45 0 -82 -3q-128 -10 -184.5 -10t-108.5 7q-7 2 -7 -9z" />
<glyph unicode="L" horiz-adv-x="1042" d="M45 1501q66 -2 112 -42t46 -109v-1129q0 -64 -27 -109q-49 -83 -108 -87q-6 0 -7 -9q0 -8 16 -7t46 1l397 8q207 0 416 -18q5 0 14 14q0 6 -2 9q34 73 45 229q0 13 4 33l-16 6q-47 -96 -136 -155.5t-196 -59.5q-111 0 -184 64q-76 66 -76 177v1035q0 66 48 105.5 t108 49.5q6 2 5 9.5t-7 7.5q-192 -13 -282.5 -13t-215.5 7v-17z" />
<glyph unicode="M" horiz-adv-x="2086" d="M47 12q2 -8 19 -5q30 5 102 5l307 -12q6 0 8 6t-4 10q-28 12 -61 23.5t-57.5 29t-24.5 72.5q0 284 72 843q8 67 14 138q52 -98 151 -319t192 -419t222 -374q4 -4 8 -4q8 0 130 261.5t214.5 466t194.5 396.5q11 -133 34 -320q54 -441 54 -673q0 -25 -14 -62 q-16 -46 -19.5 -56.5t8.5 -10.5q166 -6 443 -6l2 16q-25 11 -69 20t-77.5 22.5t-54 42t-35 95t-29 164t-28.5 217t-27.5 245.5t-24.5 249t-18.5 196.5t-12.5 121t-8 86.5t-5 63l-2 25l-15 4l-22 -37q-21 -37 -49.5 -91.5t-60 -112.5t-46.5 -92q-18 -44 -56 -122t-80 -171 t-90 -198.5t-101.5 -227.5t-110.5 -241q-27 51 -69 151.5t-89 199t-99 202t-106.5 207t-106.5 200.5q-89 166 -156 290l-25 45l-15 -4l-3 -25q-3 -26 -7 -66q-13 -135 -22.5 -214.5t-22 -207.5t-27 -259t-29 -256t-26.5 -223q-27 -220 -44.5 -244.5t-39.5 -32.5 q-39 -14 -57 -14q-19 -1 -25 -3q-5 -2 -5 -6q0 -2 1 -4z" />
<glyph unicode="N" horiz-adv-x="1712" d="M48 6q3 -6 32 -1q102 18 164 18q72 0 137.5 -7.5t94 -9.5t45.5 -3t18.5 4t-2.5 9q-38 28 -78.5 35.5t-58 14t-30.5 21.5q-28 31 -28 132.5t-4 206t-8 212.5t-8.5 213t-4.5 177q0 80 11 184q41 -45 72.5 -82.5t173 -199.5t391 -434.5t528.5 -511.5q2 -2 5 -2q2 0 4 1 q5 3 5 7q27 317 27 745v168l-4 336v136t11 67.5t29.5 25t40 15.5t33 10t15.5 4t8 2l-2 17l-51 2q-8 2 -20 2q-24 0 -66 -7l-72 -6q-21 -1 -41 -1q-39 0 -77 4q-60 8 -92.5 12t-36 -1t5.5 -13.5t28 -11.5t38 -7t39.5 -8t37.5 -19q39 -35 39 -127l12 -1020v-16 q-563 635 -1165 1253q-2 2 -5 2t-8 -2q-28 -22 -28 -598l6 -690v-57q0 -67 -19.5 -91t-36 -33t-33.5 -19.5t-34 -20.5q-16 -11 -28 -21q-10 -8 -11 -14q0 -1 1 -2z" />
<glyph unicode="O" horiz-adv-x="1675" d="M45 696q0 -173 131 -346q125 -165 305 -270q188 -109 352.5 -109t307.5 55.5t251.5 155t173 235.5t64.5 306t-64.5 324.5t-178 269.5t-267 180.5t-332.5 65.5h-18q-8 0 -16 -2q-197 -41 -332 -105.5t-219 -165.5q-158 -191 -158 -594zM233 820q0 136 39 256t115 209 q166 194 440 194q152 0 268.5 -68t195.5 -176.5t120 -243.5t41 -270t-38 -255t-112 -211q-164 -200 -436 -200q-152 0 -269.5 69t-198.5 177.5t-123 245.5t-42 273z" />
<glyph unicode="P" horiz-adv-x="1073" d="M46 1518q0 -5 5 -7q99 -22 145 -97q15 -25 15 -56v-1137q0 -109 -15 -137q-25 -47 -122 -64q-6 -2 -5 -9t7 -7q47 -2 94 -2h408q6 0 6 8t-6 8q-98 4 -139.5 46t-41.5 139v1222q78 33 151 33t133 -34.5t102 -91.5q85 -114 85 -265q0 -159 -91 -256q-92 -98 -251 -98h-23 t-20.5 2t-10.5 -6.5t5 -10.5q61 -16 137 -16t155 42t137 110q122 143 122 329q0 286 -236 339q-75 16 -167 16h-254q-158 0 -318 8q-7 0 -7 -8z" />
<glyph unicode="Q" horiz-adv-x="1699" d="M45 796q0 -173 57.5 -319.5t162 -253t251 -165t312.5 -58.5t309 63q31 0 118.5 -48t118.5 -64v2q23 -12 38 -22.5t76 -40t177.5 -81t239.5 -91.5q268 -87 497 -87q294 0 555 156l-8 14q-203 -88 -434 -88q-417 0 -937 285q-146 80 -282 162q247 182 320 490q24 98 24 196 q0 330 -232 544q-225 207 -556 207q-170 0 -316.5 -61t-256 -167.5t-172 -253t-62.5 -319.5zM233 915q0 267 169 433q164 163 436 163q273 0 440 -205q76 -94 116 -216.5t40 -249.5t-34 -242t-98 -213q-139 -211 -364 -295q-152 20 -281 96t-223 188q-201 238 -201 541z" />
<glyph unicode="R" horiz-adv-x="1609" d="M46 1520q0 -5 5 -7q63 -16 111.5 -65t48.5 -115v-1110q0 -66 -40 -122t-99 -83q-6 -4 -4 -11t36 -2q104 15 222 15q105 0 254 -14v17q-82 8 -132.5 66t-50.5 142v396q23 2 45 2h45q53 0 106.5 -7.5t100.5 -47t101.5 -109.5t97.5 -133.5t92 -128t107 -115.5 q131 -117 272 -117q105 0 201 47l-4 17q-16 -2 -32 -2q-206 0 -435 299q-82 106 -165 220t-112 146q242 231 242 461q0 187 -143 284q-124 85 -314 85l-266 -10l-244 10h-39q-7 0 -7 -8zM399 748v696q60 22 139 22t140 -36.5t103 -95.5q85 -121 85 -274.5t-61.5 -240 t-216.5 -86.5q-111 0 -189 15z" />
<glyph unicode="S" horiz-adv-x="880" d="M45 148q0 -47 23.5 -81t60.5 -55q70 -41 163 -41t188 31t174 88q182 131 182 313q0 187 -204 364q-57 50 -112 96t-105 90t-88 91q-85 104 -85 197q0 106 72 175q73 69 180 69q97 0 166 -71q64 -65 85 -167q2 -6 9.5 -5t7.5 7q18 133 33 277q0 8 -7 8q-94 27 -186 27 t-183 -19.5t-169 -62.5t-131 -111t-53 -145.5t28.5 -139t73.5 -121t102.5 -115.5t113.5 -109.5t109.5 -106.5t95.5 -107q93 -118 93 -213q0 -106 -98 -179q-89 -66 -201 -66q-124 0 -203 67q-82 69 -82 195v22q0 6 -7 7t-9 -5q-4 -16 -7 -33.5t-9 -40.5q-21 -83 -21 -130z " />
<glyph unicode="T" horiz-adv-x="1353" d="M45 1324q0 -31 2 -44q4 -28 16 -10q25 57 75 103t116 46h338v-1210q0 -104 -16.5 -129t-44 -37t-76.5 -23q-6 -2 -5 -9t7 -7q133 10 234 10t267 -14q6 0 7.5 7t-4.5 9q-78 12 -130.5 69.5t-52.5 139.5v1196h248q102 0 147.5 -25.5t67 -57t31.5 -83.5q2 -6 8 -6t8 6 q21 72 21 252v17q0 8 -6 8l-123 -23h-889q-110 0 -178 41q-3 3 -6 3q-4 0 -7 -7q-4 -18 -10 -37.5t-15 -50.5q-30 -103 -30 -134z" />
<glyph unicode="U" horiz-adv-x="1595" d="M46 1510q0 -6 5 -7q76 -18 120 -52t44 -118l-2 -131l-2 -289q0 -439 22 -516q62 -187 232 -306q171 -120 366 -120q259 0 423 184q157 177 157 437v743q0 59 39 107.5t100 58.5l-2 17h-24l-178 2h-143.5t-96.5 4q-6 0 -7 -7.5t5 -9.5q80 -12 122 -51t42 -134v-200l4 -420 v-204t-34 -178t-92 -134q-122 -118 -312 -118t-310 114q-125 119 -125 303v213l4 424v213q0 68 93 133q24 17 47 29q6 4 4 10t-25.5 5t-63.5 -1h-81q-140 0 -324 9q-7 0 -7 -10z" />
<glyph unicode="V" horiz-adv-x="1691" d="M47 1522q-1 -1 -1 -2q0 -3 5 -7q28 -16 70.5 -27t69 -23.5t56.5 -60.5q44 -70 88 -183t50 -131.5t23.5 -62.5t46 -120t79 -213t128 -331.5t188.5 -380.5q4 -4 8 -5q4 0 11 16t30 64.5t51 115.5q90 222 222.5 528.5t173 401.5t73.5 169q70 156 88 178q40 40 121 50 q9 1 19 5l-2 17q-137 -15 -220 -15q-97 0 -213 15q-6 2 -7 -6.5t5 -10.5q69 -14 92 -30.5t23 -28.5q0 -169 -237 -710q-62 -140 -100 -226q-75 -170 -95 -221q-24 68 -75.5 189.5t-88.5 214.5t-74 186.5t-71.5 182.5t-59.5 164q-57 168 -57 198t13.5 39t30.5 15q31 12 64 19 q4 2 3.5 9t-5.5 7h-65q-145 0 -453 15q-6 0 -8 -4z" />
<glyph unicode="W" horiz-adv-x="2158" d="M46 1525q-1 -2 -1 -3q0 -3 4 -6q14 -8 25.5 -14.5t28 -15.5t35 -19.5t34.5 -24.5q30 -27 61.5 -86t60 -146.5t54.5 -193.5q35 -137 77 -336t59.5 -281t35.5 -157q66 -264 74 -266q2 -1 4 -1q5 0 8 5q29 66 61.5 149.5t66.5 170.5t65.5 171t71.5 187.5t92.5 240.5 t111.5 277q45 -114 127.5 -361.5t156 -448t169.5 -386.5q2 -5 7 -5t13 21t32 93.5t51.5 165.5t56 197.5t61.5 219t68.5 246t67.5 238.5q71 236 101 267t58 53q24 18 57 18q6 0 13 -1v16q-39 -2 -78 -2h-143q-103 0 -210 11q-6 0 -6 -9q0 -8 10 -9t31 -7t40 -17 q48 -25 48 -57q0 -292 -166 -845q-43 -144 -79 -261q-37 105 -116 346.5t-152.5 450.5t-172.5 408q-10 10 -16 -2q-152 -380 -457 -1194q-14 86 -31.5 167.5t-45.5 222.5q-101 493 -126 726q46 42 117 65q6 2 4 10.5t-8 6.5q-121 -17 -202.5 -17t-140.5 7q-123 16 -135.5 16 t-20.5 2q-2 1 -5 1q-5 0 -7 -4z" />
<glyph unicode="X" horiz-adv-x="1497" d="M45 4q153 12 217 12t207 -10v17q-49 0 -80 36q8 71 62 170q90 163 170.5 291.5t95.5 155.5q6 -10 12 -20.5t25 -41t51.5 -84t67 -112t67.5 -116.5t60 -106q59 -109 59 -126q0 -11 -47 -54q-2 -2 0 1t0 1q-4 -4 -2 -9t12 -4t25 1l170 10l194 -10q18 0 39 -2l2 16 q-166 43 -358 371q-75 128 -145 255.5t-113 184.5q27 35 56.5 84.5t69 116t91 148.5t106.5 150q127 158 227 165q6 0 7 8q0 8 -7 8q-94 -8 -197.5 -8t-215.5 13q-6 0 -7 -6.5t5 -10.5q61 -17 90 -59q10 -15 10 -34.5t-15.5 -51t-39.5 -70.5q-32 -50 -95 -136 q-129 -177 -151 -218q-18 39 -52 93t-65 102.5t-58.5 90t-48.5 79.5q-48 84 -48 123.5t25.5 61t56.5 29.5q6 2 5 8.5t-19 6.5q-51 0 -99 -6q-106 -13 -174 -13t-201 13q-6 0 -7 -7.5t5 -9.5q196 -34 377 -371q49 -92 83 -160q64 -126 103 -192q-46 -62 -114 -182.5 t-123.5 -214.5t-115.5 -172q-139 -180 -255 -189v-16z" />
<glyph unicode="Y" horiz-adv-x="1548" d="M46 1506q0 -5 5 -7q68 -22 229 -220q144 -179 237 -332q167 -276 167 -351v-422q0 -53 -40 -94t-89 -60q-6 -2 -5 -9t7 -7q132 8 254.5 8t249.5 -6q6 0 7 7t-5 10q-124 26 -173 91q-20 25 -20 58v455q0 87 126 293q113 188 224 317t174.5 187.5t108.5 74.5l-2 17 q-166 -13 -205 -13q-127 0 -180 13h-2q-4 0 -6 -6q-2 -9 4 -11q57 -20 57 -72q0 -70 -123 -247q-32 -47 -55.5 -84t-41 -62.5t-41.5 -65.5q-44 -71 -101 -198h2q0 -2 -2 -4t-2 -4q-383 617 -383 674q0 20 15.5 33.5t24.5 20.5t8 12t-7 5q-108 -10 -192.5 -10t-217.5 19 q-7 0 -7 -10z" />
<glyph unicode="Z" horiz-adv-x="1253" d="M47 14q-3 -4 -3 -7q0 -5 9 -5h131l418 8l420 -8h63q72 0 72 10q37 257 51 316l-14 6q-68 -103 -115 -143q-101 -87 -178 -87l-530 -2q-46 0 -90 4q244 346 482 693.5t431 705.5q4 4 0 8.5t-8 4.5h-840q-81 0 -194 24q-10 0 -11 -6q-12 -68 -19 -130q-15 -132 -23.5 -170 t-2.5 -41t10 1q68 78 111 124t89 70.5t106.5 32t135.5 7.5h118l180 4h88q14 0 27 -4q-76 -119 -153 -233t-195 -290q-373 -557 -566 -893z" />
<glyph unicode="[" horiz-adv-x="432" d="M45 31q0 -8 8 -8q152 -5 252 -5h6q51 0 70 11l-2 14q-10 4 -25.5 5t-37.5 3t-48 7t-48 14q-52 19 -52 57v1217q0 49 41 64t77 21.5t57.5 9.5t37.5 11q6 4 4 10t-8 6h-324q-8 0 -8 -8v-1429z" />
<glyph unicode="\" horiz-adv-x="960" d="M47 1378q414 -677 782 -1272q4 -4 19 -2t36 20.5t31 43.5l-2 6q-228 357 -441 700q-290 468 -339 543q-4 8 -10 4l-74 -30q-6 -4 -2 -13z" />
<glyph unicode="]" horiz-adv-x="444" d="M47 29q2 -6 8 -6h336q8 0 8 8v1429q0 8 -8 8h-330q-6 0 -8 -6t4 -10q16 -8 36 -11t43.5 -7t48 -9.5t43.5 -14.5q44 -20 44 -67v-1204q0 -64 -80 -77q-22 -3 -48 -5q-69 -5 -93 -18q-6 -4 -4 -10z" />
<glyph unicode="_" horiz-adv-x="937" d="M45 -315v-80q0 -8 8 -8h832q8 0 8 8v80q0 8 -8 8h-832q-8 0 -8 -8z" />
<glyph unicode="`" horiz-adv-x="471" d="M49 1649q-8 -8 4 -13.5t27.5 -10.5t61.5 -23q168 -69 280 -80l4 14q-32 16 -85.5 58.5t-102 75t-85.5 32.5q-58 0 -104 -53z" />
<glyph unicode="a" horiz-adv-x="1214" d="M70 153q71 9 147 9q64 0 162 -10v16q-25 4 -51.5 13t-26.5 53t115 354h317l146 -381l-80 -39q-6 -4 -4 -10t28.5 -4t73.5 6t79 4q51 0 82 -3q50 -4 82 -4q18 0 29 1v16q-106 9 -149 92q-117 221 -208 452.5t-138 361t-58.5 157t-17.5 44.5t-12 17t-8 -6 q-39 -102 -74 -203.5t-80 -228.5q-108 -305 -215 -575v2q-45 -104 -158 -119q-5 -2 -5 -8q0 -10 24 -7zM438 655q39 111 71 214.5t66 211.5l127 -426h-264z" />
<glyph unicode="b" horiz-adv-x="862" d="M46 1275q-1 -2 -1 -3q0 -5 5 -12q11 -15 41 -19t40 -6t17 -8q18 -14 18 -62v-854q0 -76 -12 -94q-16 -26 -86 -51q-6 -2 -5.5 -9t7.5 -7h96l194 -5h99q145 0 249 91q109 94 109 226t-69.5 212t-176.5 114q138 128 138 254q0 114 -106 182q-94 60 -210 60l-250 -16 q-50 0 -72 6t-25 1zM309 315v428q259 -7 343 -169q30 -60 30 -123.5t-15.5 -105.5t-42.5 -75q-61 -71 -153 -71q-55 0 -92 23q-70 45 -70 93zM311 807v410q47 14 87 14t75 -17.5t59 -47.5q48 -60 48 -137t-18.5 -118t-53.5 -65q-59 -39 -191 -39h-6z" />
<glyph unicode="c" horiz-adv-x="1101" d="M45 696q0 -243 162 -401q160 -156 407 -156q161 0 390 37q6 0 6 4q47 88 47 191q0 55 -8.5 58t-12.5 -3q-58 -127 -118 -173q-74 -56 -195 -56t-219 48t-170 128q-152 169 -152 399q0 214 130.5 342.5t342.5 128.5q133 0 227 -69q99 -72 119 -203q2 -6 9 -6q6 0 8 6 q22 147 31 280q0 8 -24 11q-54 5 -125 16q-151 22 -264 22t-227 -39.5t-195 -116.5q-169 -161 -169 -448z" />
<glyph unicode="d" horiz-adv-x="1216" d="M46 1265q11 -17 41 -21.5t54.5 -18t24.5 -60.5v-846q0 -66 -15.5 -98.5t-82.5 -46.5q-6 -2 -5.5 -9t7.5 -7q20 1 41 1q64 0 144 -7q204 -17 310 -17t225 36t203 109q178 153 178 447q0 231 -157 392q-158 161 -396 161q-102 0 -152 -5q-90 -9 -173 -9l-240 10q-9 0 -9 -5 q0 -2 2 -6zM309 377v813q61 22 173 22t215.5 -37.5t176.5 -108.5q158 -152 158 -396q0 -229 -142 -352q-135 -117 -366 -117q-121 0 -154.5 23.5t-47 58t-13.5 94.5z" />
<glyph unicode="e" horiz-adv-x="757" d="M46 1271q0 -4 3 -7q21 -13 52 -23t50 -22.5t19 -53.5v-852q0 -145 -96 -145v-16q110 4 223 4l160 -2l190 -2q21 0 29 8q8 0 8 6q15 114 29 182l-17 4q-16 -70 -66 -107.5t-112.5 -37.5t-119 23.5t-87.5 68.5v422h109q133 0 160 -27q10 -10 14 -22.5t8 -24.5t7 -22.5 t10.5 -17.5t12.5 -5t5 8l25 209q0 8 -9 8q-13 0 -47 -18q-48 -18 -59 -18h-238v419h162q66 0 111 -22.5t49 -93.5q0 -6 7 -7.5t9 5.5q28 133 35 192q0 9 -5 9q-2 0 -4 -1q-9 -4 -18.5 -7t-17.5 -7h-584q-7 0 -7 -7z" />
<glyph unicode="f" horiz-adv-x="749" d="M47 1271q0 -4 9 -10q11 -7 26.5 -12.5t33.5 -10.5t36 -16.5t18 -58.5v-856q0 -81 -10 -97q-18 -31 -88 -42q-6 -2 -5 -9t7 -7h12l176 10l170 -10h14v16q-54 0 -96 45q-39 43 -39 98v410h172q66 0 102 -25q33 -24 33 -84v-10q0 -6 7.5 -7t9.5 5q18 97 29 219q0 6 -5.5 8 t-12.5 -6t-25.5 -20.5t-32.5 -12.5h-277v402q50 0 85 6q69 12 124 12q129 0 129 -123q0 -6 7.5 -7t9.5 5l36 199q1 2 1 3q0 4 -4 7q-1 1 -3 1q-7 0 -22 -9q-26 -15 -111 -15q-26 0 -57 1l-45 2h-146q-131 0 -260 6q-8 0 -8 -7z" />
<glyph unicode="g" horiz-adv-x="1198" d="M45 743q0 -301 183 -457q176 -151 470 -151q90 0 182.5 13.5t168.5 70.5q4 4 4 6v381q0 41 30.5 58.5t69.5 25.5l-2 17q-178 6 -358 6q-6 0 -8.5 -5.5t3.5 -9.5q14 -8 27.5 -12t32.5 -10t40 -18.5t21 -47.5v-340q-64 -57 -182.5 -57t-217.5 44t-173 120 q-158 162 -158 395q0 208 142 342q140 131 352 131q208 0 296 -137q31 -47 44 -113q2 -6 8 -6q9 0 10.5 20.5t6.5 52t13.5 82t8.5 105.5q0 8 -8 8q-290 43 -403 43t-226 -35.5t-197 -106.5q-180 -152 -180 -415z" />
<glyph unicode="h" horiz-adv-x="1247" d="M45 1251q41 -2 77 -24.5t36 -67.5v-872q0 -66 -14 -84q-19 -25 -87 -37q-6 -2 -5 -9t7 -7l39 -3q27 -2 54 -2h51l104 2q49 3 125 3q6 0 6 8t-6 8q-133 12 -133 141v430h629v-426q0 -66 -18.5 -96.5t-82.5 -48.5q-6 -2 -5 -9t7 -7q82 4 172 4t199 -7l2 17 q-70 12 -100.5 47t-30.5 104v840q0 51 26.5 66.5t71.5 23.5q6 2 5.5 9.5t-7.5 7.5q-102 -5 -180 -5t-176 7q-6 0 -7 -7.5t6 -9.5q21 -6 44 -12t48.5 -19.5t25.5 -62.5v-348h-627v356q0 41 29.5 63.5t66.5 22.5q6 0 6 8t-6 9h-43l-139 -2q-84 0 -170 6v-17z" />
<glyph unicode="i" horiz-adv-x="479" d="M46 1258q0 -6 5 -7q43 -6 75 -24.5t32 -65.5v-850q0 -113 -99 -147q-6 -2 -5 -9.5t7 -7.5q138 5 218 5l155 -2v16q-74 6 -103.5 40t-29.5 111v844q0 53 27.5 67.5t72.5 24.5q6 3 4 11q-2 7 -6 6h-2q-68 -10 -163 -10t-181 8q-7 0 -7 -10z" />
<glyph unicode="j" horiz-adv-x="454" d="M-33 -205q-2 -2 -2 -4.5t2 -6.5q3 -4 6 -4q2 0 4 1q229 111 307 317q27 70 27 150v909q0 49 29 66.5t74 25.5l-2 17q-25 1 -49 1h-25q-37 -1 -72 -1l-76 -2q-70 0 -133 6q-6 0 -8 -5q-5 -12 20 -19t43.5 -13t38 -19.5t19.5 -56.5v-895q0 -155 -48 -258q-36 -79 -155 -209 z" />
<glyph unicode="k" horiz-adv-x="1191" d="M46 1256q0 -6 5 -7q41 -8 78 -33.5t37 -66.5v-838q0 -77 -12 -97q-21 -39 -88 -50q-6 -2 -5.5 -9.5t7.5 -7.5q129 11 178 11l164 -8q12 0 21 -2.5t11 5t-9 14.5q-15 10 -45.5 19.5t-42 16t-19.5 19.5q-17 27 -17 110q0 173 4 375q35 -33 71 -74l90 -102.5t122 -136.5 t138 -136q161 -139 284 -139q63 0 129 41l-4 14q-159 0 -439 301q-131 140 -189 205t-87 94q59 55 135 144q290 316 430 333q6 2 5 9.5t-7 7.5q-70 4 -122 4h-91q-39 0 -80 4q-14 0 -5 -16t9 -42t-23.5 -64t-60.5 -81q-56 -66 -133 -138q-142 -130 -170 -165l-6 377 q0 41 29 70.5t70 31.5q6 0 6 8t-6 9l-21 2q-26 2 -54 2t-57 -2q-92 -6 -134.5 -6t-88.5 4q-7 0 -7 -10z" />
<glyph unicode="l" horiz-adv-x="796" d="M45 1253q49 -2 82 -30.5t33 -77.5v-834q0 -44 -18 -77q-34 -60 -79 -64q-6 0 -6 -8t6 -8l43 2q68 2 135.5 4t197 2t266.5 -15q12 7 12 13t-2 8q20 41 25 83t10 87l2 24l-17 5q-35 -72 -100.5 -116t-144 -44t-133 46t-54.5 132v762q0 43 35 72.5t78 37.5q6 2 5 9.5t-7 7.5 q-111 -6 -184 -6h-109q-37 0 -76 2v-17z" />
<glyph unicode="m" horiz-adv-x="1566" d="M47 162q2 -8 16.5 -5t33.5 3h40l228 -8q6 0 8 6t-3 9t-19.5 8t-32 12t-36 20.5t-18.5 50.5q0 181 23.5 367t30 234t12.5 99q35 -70 60.5 -128t72.5 -162q145 -322 278 -508q4 -4 9 -4q6 0 41.5 77.5t84.5 180.5q174 368 269 551q4 -72 11 -126.5t18 -146.5 q34 -284 34 -368t-6 -102.5t-10 -30t-5 -15.5t-3 -8q-4 -10 8 -10q80 -4 163 -4h165l2 16q-16 8 -31.5 9t-37.5 5t-42 13.5t-36.5 32t-27 72.5t-21.5 124t-21.5 163t-20.5 183q-28 265 -34.5 336t-9.5 115.5t-5 59.5q-3 24 -14 13q-90 -133 -170 -303t-133 -291 q-114 -265 -152 -340q-18 35 -41 86.5t-63.5 137t-97 202.5t-108.5 222q-120 237 -167 288q-3 3 -7 3h-2q-6 -1 -8 -15.5t-6 -66.5t-12 -124.5t-18.5 -165.5t-20.5 -189.5t-21.5 -188.5t-20.5 -165q-20 -164 -31 -180q-14 -21 -44 -25.5t-47 -8.5q-5 -2 -5 -6q0 -2 1 -4z " />
<glyph unicode="n" horiz-adv-x="1292" d="M48 154q3 -6 26 -2q72 14 119 14t215 -16q6 0 7 5t-3 9q-23 16 -39.5 21t-31.5 8.5t-28.5 8.5t-22.5 17q-22 29 -22 90l-16 625q0 51 6 106q29 -31 51.5 -58.5t78.5 -91.5t148.5 -168t187.5 -205q222 -236 390 -380q2 -2 5 -2q2 0 4 1q5 3 5 7q19 222 19 467v84l-2 494 q0 31 31.5 43t48 17t17.5 4t5 1l-4 17l-45 2q-29 2 -56.5 1t-62.5 -1h-78q-41 0 -66.5 4t-28.5 -2t4 -13q11 -11 38 -14.5t41.5 -7.5t26.5 -15q26 -25 26 -89l11 -750v-6q-402 448 -856 919q-1 3 -4 3q-1 0 -3 -1q-4 -2 -6 -6l-16 -32v-959q0 -47 -19.5 -68.5t-38.5 -30.5 q-31 -15 -61 -40q-2 -2 -2 -5q0 -2 1 -5z" />
<glyph unicode="o" horiz-adv-x="1261" d="M45 664q0 -98 56.5 -194.5t142.5 -172.5t189.5 -123t210 -47t212 41t185 114.5t128 175t48.5 226.5t-48.5 244t-132.5 206t-196 135q-93 40 -199 40q-22 0 -45 -2l-27 -2q-293 -63 -407 -202q-117 -142 -117 -439zM186 758q0 199 115 338q118 143 322 143q208 0 339 -178 q117 -161 117 -380q0 -99 -27.5 -187t-81.5 -155q-119 -146 -319 -146q-207 0 -343 181q-122 164 -122 384z" />
<glyph unicode="p" horiz-adv-x="819" d="M46 1269q0 -5 5 -7q41 -10 78 -38t37 -71v-840q0 -83 -10 -100q-20 -34 -88 -45q-6 -2 -6 -9q1 -9 56 -9h89h233q6 0 6 8t-6 8q-70 4 -100.5 32.5t-30.5 96.5v903q49 25 105.5 25t100.5 -26t75 -67q63 -82 63 -194.5t-67.5 -185t-184.5 -72.5h-34q-6 0 -7 -7v-2 q0 -16 80 -17h5q80 0 137 30q59 31 102 81q90 105 90 243q0 149 -80 210q-72 54 -219 54h-180q-157 0 -242 8q-7 0 -7 -9z" />
<glyph unicode="q" horiz-adv-x="1282" d="M45 700q0 -261 164 -426q163 -165 424 -165q123 0 219 47q26 0 180 -84v2q24 -14 41 -25q412 -211 711 -211q221 0 411 115l-8 14q-141 -65 -290.5 -65t-266.5 28.5t-228 74.5q-156 64 -427 224q121 88 185.5 223.5t64.5 270.5t-46 237.5t-125 175.5q-165 154 -411 154 q-251 0 -423 -170q-175 -173 -175 -420zM188 786q0 197 124 318q123 119 321 119q200 0 321 -151q115 -141 115 -343q0 -94 -25.5 -178t-72.5 -155q-98 -149 -266 -216q-213 40 -364 215q-153 177 -153 391z" />
<glyph unicode="r" horiz-adv-x="1212" d="M46 1267q0 -5 5 -7q47 -12 81 -48t34 -84v-817q0 -47 -28.5 -88t-71.5 -61q-6 -4 -3 -11.5t29 -3.5q87 13 162 13q69 0 186 -10v16q-59 6 -95 48t-36 101v291q16 4 31 4h33q138 0 251 -150q31 -42 61 -87t63.5 -90t72.5 -80q89 -80 199 -80q70 0 147 35l-6 16 q-12 -2 -24 -2q-144 0 -317 222q-98 128 -138.5 185.5t-63.5 82.5q68 63 122.5 151t54.5 174t-29 139.5t-76 85.5q-92 64 -233 64h-404q-7 0 -7 -9zM311 698v510q39 17 97.5 17t103.5 -28t76 -71q61 -87 61 -200t-44 -175.5t-159 -62.5q-77 0 -135 10z" />
<glyph unicode="s" horiz-adv-x="675" d="M45 257q0 -32 17.5 -57.5t45.5 -41.5q50 -31 119 -31t140 23.5t129.5 65.5t96.5 101.5t38 123t-20.5 110.5t-53.5 89q-50 63 -160 153q-108 91 -138 126q-64 74 -64 149t52 125t129 50t123 -51t62 -123q2 -6 8 -6t9 6q16 106 24 207q0 4 -6 8q-71 21 -146 21 q-63 0 -128 -15q-147 -34 -222 -130q-39 -50 -39 -108.5t20.5 -103.5t53.5 -89q38 -51 120.5 -129.5t121.5 -117.5t69 -78q68 -85 68 -139.5t-20.5 -88.5t-51.5 -58q-64 -47 -147 -47q-133 0 -191 102q-18 33 -18 76v31q0 6 -8 6t-8 -6l-11 -50q-4 -23 -9 -47t-5 -56z" />
<glyph unicode="t" horiz-adv-x="1026" d="M45 1118l4 -26q0 -6 6 -8.5t8 3.5q16 43 53.5 76t86.5 33h246v-889q0 -75 -13 -93q-21 -29 -86 -44q-6 -2 -5 -10t7 -6q82 8 159 8t210 -10q6 0 7 7t-5 9q-57 10 -94 51t-37 100v879h180q66 0 114 -23.5t64 -95.5q2 -6 7 -6q24 0 24 205l-10 8q-72 -18 -86 -18h-656 q-84 0 -131 30q-3 2 -5 2q-4 0 -7 -8q-6 -18 -15 -50t-17.5 -61.5t-8.5 -62.5z" />
<glyph unicode="u" horiz-adv-x="1202" d="M46 1258q0 -6 5 -7q55 -14 87 -38.5t32 -84.5v-206l-2 -199q0 -245 19.5 -299t65.5 -111t105 -100q125 -90 269 -90q192 0 311 134q117 132 117 325v548q0 43 28.5 77t73.5 42l-2 17q-25 1 -49 1h-25q-37 -1 -71 -1l-68 -2q-55 0 -113 6q-6 0 -7 -7.5t5 -9.5 q57 -10 88 -37.5t31 -87.5l4 -618q0 -141 -90 -227t-231 -86q-137 0 -228 85q-90 84 -90 222l4 626q0 37 34 69t67 48q6 4 4 10.5t-21.5 5.5t-50.5 -1h-63q-115 0 -232 6q-7 0 -7 -10z" />
<glyph unicode="v" horiz-adv-x="1273" d="M47 1267q0 -4 9 -10q11 -7 27.5 -11.5t34.5 -9.5t36 -13.5t34 -36.5q70 -113 121 -246t99.5 -272t101.5 -273.5t129 -263.5q4 -4 8 -4q6 0 51 104.5t72 167t64.5 152.5t88 206.5t92.5 214.5q92 216 111 240q23 23 53 29l50 10l-2 17q-18 0 -58 -5q-64 -8 -112 -8 q-30 0 -54 3q-63 8 -73 8t-17.5 2t-9.5 -6.5t2 -10.5q6 -2 20.5 -5t28.5 -8q35 -12 35 -28q0 -126 -256 -704q-37 -84 -61 -141q-16 51 -63.5 161.5t-88.5 214t-76 198.5q-82 227 -82 269q0 20 56 34q12 3 18 3t6 8t-6 9h-41q-114 0 -340 12q-8 0 -8 -7z" />
<glyph unicode="w" horiz-adv-x="1617" d="M46 1272q-1 -2 -1 -3q0 -4 6 -8q20 -13 44 -25.5t45.5 -29t57.5 -88.5q60 -120 150 -565q83 -423 106 -427h1q4 0 8 5q63 145 143 358q150 399 201 519q29 -76 50.5 -142.5t60.5 -182.5q121 -365 219 -552q10 -10 16 2q45 117 105.5 344t87 324.5t50.5 178.5 q56 184 83 216q50 50 86 50q4 0 8 -1v17q-29 -2 -55 -2h-90q-65 0 -173 8q-6 0 -7 -7.5t5 -9.5q56 -11 73 -29t17 -30q0 -154 -44 -331q-59 -236 -134 -476q-25 70 -46 135.5t-59 179.5q-120 359 -218 566q-11 11 -17 -2q-181 -450 -333 -869q-12 63 -21.5 113.5 t-31.5 155.5q-76 367 -95 540q29 29 84 49q6 2 4 10.5t-8 6.5q-106 -15 -171 -15q-28 0 -49 3q-113 16 -130 16q-8 0 -16 2h-4q-6 0 -8 -4z" />
<glyph unicode="x" horiz-adv-x="1128" d="M45 152q82 8 156 8q73 0 155 -8v16q-35 4 -55 27q6 75 170 337q20 33 38.5 61t31.5 50q6 -10 11 -19.5t25.5 -43t56.5 -92t68 -114.5q76 -132 89 -169l-35 -39q-4 -4 -2 -9t8 -5q74 8 155.5 8t163.5 -8l2 16q-127 35 -265 272q-77 133 -116.5 207t-70.5 117 q29 43 75 117.5t83.5 135t77.5 111.5q88 114 167 121v17q-68 -6 -132.5 -6t-172.5 10q-6 0 -7 -7.5t12 -12.5t40 -22.5t27 -36.5t-12.5 -43t-31 -51.5t-41 -59t-48.5 -67.5q-65 -92 -88 -132q-14 29 -39 68.5t-45 72.5t-40 64.5t-36 61.5q-39 70 -39 94q0 42 59 61q6 2 5 9 t-7 7l-207 -14q-77 0 -151 8q-6 0 -7 -7.5t5 -9.5q137 -25 276 -275q37 -67 59.5 -112t39 -76.5t34.5 -66.5q-16 -29 -40.5 -69t-55.5 -94.5t-73 -123.5t-86 -128q-103 -137 -187 -140v-16z" />
<glyph unicode="y" horiz-adv-x="1167" d="M46 1258q0 -5 5 -7q80 -24 271 -301q113 -163 152.5 -248.5t39.5 -113.5v-312q0 -39 -27.5 -67.5t-62.5 -42.5q-6 -4 -5 -10t7 -6q51 4 101 4h161t91.5 -1t24.5 6t-12 10t-38 11t-46 22q-49 32 -49 72v336q0 62 92 218q79 132 162 230q147 171 209 193l-2 17 q-110 -11 -154 -11q-80 0 -107 6.5t-29.5 -1t4.5 -11.5q38 -19 38 -51q0 -33 -74.5 -159t-101.5 -172t-53.5 -89t-38.5 -65q-278 451 -278 491q0 15 34 43q2 2 1 0t1 0q4 4 2 9.5t-8 5.5q-49 -5 -110 -5q-85 0 -193 9q-7 0 -7 -10z" />
<glyph unicode="z" horiz-adv-x="954" d="M47 164q-3 -4 -3 -7q0 -5 9 -5h99l139 -2l258 -3q156 0 313 7q10 0 10 18q0 6 6 35.5t11.5 81t19.5 104.5l-14 6q-61 -102 -151 -149q-31 -17 -64 -17l-391 -2h-31q-14 0 -31 2q180 256 354.5 511t315.5 516q4 4 0 8t-8 4l-432 -10q-191 0 -330 30q-3 1 -5 1q-5 0 -5 -7 q-4 -23 -7.5 -53.5t-7.5 -57t-8 -62.5t-10 -57.5t0 -24.5t10 1q49 57 81 91t65 53q52 28 200 28l131 2h142q4 0 8 -2q-65 -101 -203.5 -308.5t-252 -379.5t-218.5 -352z" />
<glyph unicode="{" horiz-adv-x="512" d="M45 794q0 -13 32 -20.5t47 -11.5t25.5 -9t15.5 -17q9 -23 9 -101v-152q0 -191 37 -269.5t93 -125.5t153 -72l6 17q-139 66 -154 275q-4 57 -4 110v49l2 70q0 150 -47 215q-20 28 -53 47q93 43 100 194q2 41 2 78v49q0 49 1 101.5t16 97.5q33 103 135 123q6 2 5 9t-7 7 q-250 -10 -269 -248q-6 -65 -7 -122.5t-4 -104.5t-16 -85q-28 -83 -112 -97q-6 -2 -6 -7z" />
<glyph unicode="|" horiz-adv-x="151" d="M45 8q0 -8 8 -8h45q8 0 8 8v1557q0 8 -8 8h-45q-8 0 -8 -8v-1557z" />
<glyph unicode="}" horiz-adv-x="509" d="M47 30q2 -7 8 -5q247 54 281 306q10 75 10 158l-2 54v78q0 91 10 116t28.5 30t35.5 5h24q8 0 19 2l4 14q-16 16 -50 20.5t-53.5 15t-19.5 50.5l2 89v96q0 183 -38 254t-94 108t-151 47q-6 0 -8 -6t3 -9t7.5 -5t6.5 -4v2q141 -90 141 -176v-41l-6 -150q0 -84 20.5 -161.5 t85.5 -118.5q-32 -22 -58 -72q-42 -82 -42 -113v-55l4 -94v-53q0 -137 -23.5 -205t-55.5 -107t-85 -59q-6 -4 -4 -11z" />
<glyph unicode="&#xa1;" horiz-adv-x="260" d="M45 106q40 11 82 45q82 63 82 95q0 350 -44 682q-15 114 -40 217q-28 -204 -39 -426q-18 -402 -41 -613zM51 1347.5q0 -32.5 20.5 -65.5t54.5 -33t61.5 21.5t27.5 56.5t-23.5 67.5t-59.5 32.5t-58.5 -23.5t-22.5 -56z" />
<glyph unicode="&#xa2;" horiz-adv-x="839" d="M45 737q0 -155 90 -266q92 -113 242 -145l-27 -242q0 -8 8 -8l66 8q8 0 8 6l23 223l51 -2q187 0 257 75q28 30 28 64q0 43 -9.5 70t-15.5 27t-8 -6q-47 -144 -209 -140q-18 0 -36.5 1t-37.5 1q6 29 9 80.5t7.5 121t10.5 153.5t17 154q25 163 69 163q33 0 71 -39 q43 -45 86 -110h-2q2 -4 4.5 -6t7.5 -10.5t13 3.5q27 62 27 102t-26 67.5t-63 45.5q-57 27 -153 33l22 162q0 10 -8 10h-20q-41 0 -51 -41q-11 -50 -11 -114q0 -12 -4 -23q-189 8 -312 -111q-124 -121 -124 -307zM178 791.5q0 117.5 79 195.5t202 88q-16 -160 -31.5 -321.5 t-32.5 -321.5q-94 51 -155.5 146.5t-61.5 213z" />
<glyph unicode="&#xa3;" horiz-adv-x="1009" d="M51 159q-12 -15 2 -16q195 -10 316 -10l372 -10q94 0 158 45t64 147q0 24 -9 62q-4 14 -12 2q-41 -53 -66.5 -82t-51.5 -42q-33 -17 -152 -17h-248q-70 0 -143 4q94 92 131 210.5t43 245.5q8 2 18 2h39l88 -6q45 0 81 13.5t46 60.5q4 10 -8 10q-66 -6 -112 -6 q-74 0 -140 8q-12 37 -12 81t24.5 120t65.5 146.5t96 119.5t103.5 49t75 -18t46.5 -47q24 -33 58 -123l14 -2q25 40 25 139v47l2 33q0 2 -19.5 15.5t-60.5 26.5t-84 13q-92 0 -178 -55t-154 -138t-109 -181.5t-41 -184.5v-23t5 -24q-1 -1 -19 -10q-12 0 -41 6t-61.5 0 t-44.5 -63q-4 -10 8 -11q59 6 153 -4q-8 -31 -12 -66.5t-11 -88t-19.5 -121t-40.5 -116.5t-69.5 -71.5t-72.5 -39t-43 -30.5z" />
<glyph unicode="&#xa5;" horiz-adv-x="1189" d="M45 1329q135 -37 275 -277q67 -113 122.5 -218t81.5 -148q-24 -4 -50 -4t-57.5 3t-62.5 1q-72 -5 -96 -57h281v-406q0 -42 -53 -64q-44 -19 -89 -14l-24 2q52 -16 141.5 -16t161.5 1t143 -1q-18 8 -46 13.5t-55 12.5q-67 17 -67 64v408h273l16 59h-281q23 41 54.5 102.5 t69.5 132t80 141.5t88 129q106 133 194 144h-117q-115 0 -186 -6q29 -39 28.5 -81t-33 -107.5t-74.5 -138t-84 -141t-61 -113.5q-23 52 -110.5 194.5t-120.5 211.5t-33 110t19 65q-80 6 -141 6q-105 0 -187 -8z" />
<glyph unicode="&#xa7;" horiz-adv-x="825" d="M45 631q0 -187 103 -269q67 -51 221 -90q130 -32 174 -63q86 -62 86 -184q0 -223 -215 -224q-91 0 -207 41q-6 2 -10 -6l-37 -100q-2 -6 9 -9t27.5 -5.5t37.5 -8.5q65 -18 138.5 -18t145.5 32.5t120 88.5q97 115 97 286.5t-100 262.5q145 145 145 358q0 265 -210 335 q-58 19 -111 32.5t-99.5 29t-81.5 42.5q-81 60 -81 166.5t50 173.5t154 67q89 0 224 -45q6 -4 10 4l37 102q2 6 -6 10q-88 35 -184.5 35t-170 -33.5t-123.5 -91.5q-98 -117 -98 -309q0 -85 16 -123q22 -50 84 -119q-145 -145 -145 -368zM156 719q0 139 88 250 q44 -15 104.5 -30t119 -33.5t104.5 -50.5q104 -72 104 -218q-2 0 -2 -4q0 -136 -96 -236q-42 13 -112 30t-124.5 32.5t-95.5 46.5q-90 68 -90 213z" />
<glyph unicode="&#xa8;" horiz-adv-x="571" d="M45 1610q0 -29 21.5 -56.5t51.5 -27.5t48 22t18 50t-18.5 54.5t-46.5 26.5q-29 0 -51.5 -20.5t-22.5 -48.5zM385 1608.5q0 -29.5 21.5 -56t51.5 -26.5t49 22t19 51t-18.5 54.5t-48 25.5t-52 -20.5t-22.5 -50z" />
<glyph unicode="&#xa9;" horiz-adv-x="1398" d="M45 824q0 -126 46 -254t127 -234.5t192.5 -176t239.5 -69.5t254 47t225.5 131t162 199t62.5 244t-45 256t-127 231.5t-193.5 171t-241 66.5t-254 -47.5t-224 -130t-162 -195.5t-62.5 -239zM152 827q0 242 177 385q165 134 414 134q226 0 370 -134q147 -138 147 -365 q0 -114 -39 -217.5t-107 -189.5q-141 -180 -354 -252q-248 24 -427 205q-181 183 -181 434zM305 788q0 -168 147 -285q139 -110 310 -110q135 0 186 83q19 30 19 58v37q0 29 -11 29q-6 0 -8 -6q-23 -59 -71 -96t-112 -37t-123.5 32.5t-107.5 84.5q-104 116 -104 241 q0 115 101 198q94 77 212 77q74 0 128.5 -42t68.5 -116q2 -6 7 -6t9 4q23 47 23 137l2 43l-4 6q-66 47 -164 47t-184 -24.5t-158 -72.5q-166 -111 -166 -282z" />
<glyph unicode="&#xaa;" horiz-adv-x="796" d="M45 831q27 -2 51 -2h105q27 0 53 2q-39 56 -39 91t14.5 53t34.5 29q39 22 82 22t77 -8t63 -26q65 -43 65 -111q0 -23 -6 -43q61 -9 160 -9h47q-57 23 -108.5 100t-97.5 169t-87 183t-76 144q-34 -64 -74.5 -165t-68 -163.5t-58.5 -116.5q-69 -123 -137 -149zM289 1069 q27 72 80 197q53 -93 86 -197h-166z" />
<glyph unicode="&#xab;" horiz-adv-x="786" d="M45 807q104 -144 313 -338l64 80q-163 146 -264 266q68 82 138.5 161t117.5 175q-245 -214 -369 -344zM362 807q162 -202 308 -338q34 37 71 72l-264 266q14 23 55 72t84 102q109 134 109 164l-2 6q-92 -86 -183 -170t-178 -174z" />
<glyph unicode="&#xac;" horiz-adv-x="1916" d="M45 528q156 -8 311 -8q-29 12 -49 16.5t-33 12.5q-26 15 -26 72q0 162 24.5 317.5t42.5 314.5q49 -84 93.5 -172t90.5 -174q116 -217 206 -334v-413q0 -99 -15 -122q-25 -42 -115 -56q167 -9 441 -9q-41 20 -72 21.5t-50.5 10.5t-28.5 42t-9 119v493q53 -49 116.5 -120.5 t135.5 -152.5t147.5 -161t154.5 -143q177 -143 310 -143q80 0 152 45q-171 0 -469 296q-124 124 -242.5 258t-167.5 181q89 79 197 203q24 -187 24 -272t-8 -118q195 -10 314 -10q-25 8 -45.5 11.5t-40.5 7.5q-44 8 -67 37.5t-36.5 90t-22.5 129.5q-21 145 -26 228 q246 259 406 279q-88 4 -175.5 3t-175.5 5q35 -63 -12 -131q-27 -39 -49 -68q-10 104 -24.5 205.5t-28.5 204.5q-100 -140 -169 -273t-110 -219t-84 -168l-4 303q0 53 37 92t90 44q-177 10 -426 10q10 -18 34.5 -19.5t49.5 -6.5q64 -13 64 -105v-396q-16 31 -50 93.5 t-75 138.5t-87.5 159t-88.5 153q-98 166 -130 194q-4 -31 -13 -111t-22.5 -183.5t-27.5 -217t-27 -210.5q-32 -224 -47.5 -245t-38 -23t-53.5 -6zM860 682v63q196 367 287 515q10 -105 29 -250q-80 -82 -162 -158t-154 -170zM1432 709l8 -105l33 -2l73 4q51 0 66 -18 q-12 -12 -39 -35t-53 -47q-68 -63 -68 -88q68 -15 104 -15h9q14 105 77 168q8 -12 18.5 -42.5t23.5 -61.5q31 -78 59 -78q33 0 53 78q-6 20 -26.5 34.5t-41.5 28.5q-57 35 -57 68q47 0 91 4t89 8q-4 23 -12 54.5t-31 46.5q-83 -90 -139 -90h-12q10 45 24.5 87t14.5 69.5 t-6 51.5q-64 -9 -105 -43q12 -35 28.5 -70.5t16.5 -61t-4 -38.5q-18 8 -40.5 24.5t-47.5 31.5q-62 39 -90 39z" />
<glyph unicode="&#xad;" horiz-adv-x="622" d="M45 635q0 -12 10 -8q101 39 289 65q150 25 234 49v17q-30 10 -228 10h-270q-8 0 -8 -6q-18 -52 -27 -127z" />
<glyph unicode="&#xae;" horiz-adv-x="1417" d="M45 757q0 -138 66.5 -259t173 -207t240.5 -133t255 -47t224.5 55t185.5 143t132 195t50 217.5t-47 238t-130 235.5t-193.5 177.5t-235.5 69.5t-253 -57.5t-232.5 -152.5t-170 -216t-65.5 -259zM170 831q0 241 174 383q161 132 410 132q232 0 374 -136q146 -140 146 -368 q0 -213 -148 -400q-46 66 -155 164q-35 33 -72 67t-61 62q106 121 106 232q0 84 -62 131q-56 41 -143 41h-301q-6 0 -7 -5.5t3 -9.5q7 -7 29 -14q55 -19 55 -43v-584q0 -23 -14.5 -31t-28.5 -13t-22.5 -7t-15.5 -9t-6 -12t7 -5h269q14 0 6 12q-14 16 -49 31q-23 4 -31 10 q-10 88 -10 205v43q30 12 45 12q53 0 98 -49t79 -95.5t57.5 -78t49.5 -56.5q55 -53 115 -53h10q-126 -132 -301 -199q-247 24 -427 208q-179 183 -179 435zM625 772v315q105 25 163 -53q39 -53 39 -118.5t-29.5 -113.5t-81.5 -48t-91 18z" />
<glyph unicode="&#xaf;" horiz-adv-x="526" d="M45 1585h414q22 39 22 60h-422q-14 -33 -14 -60z" />
<glyph unicode="&#xb0;" horiz-adv-x="643" d="M45 1239q0 -114 83 -199q80 -82 200 -82q112 0 190 78q80 80 80 191q0 57 -20.5 110.5t-57.5 92.5q-82 88 -201 88q-112 0 -192 -84q-82 -86 -82 -195zM123 1229q0 82 54 144.5t147 62.5q80 0 136 -58q27 -28 43.5 -64t16.5 -56v-23q0 -81 -60 -139t-141 -58 q-73 0 -133 54q-63 55 -63 137z" />
<glyph unicode="&#xb2;" />
<glyph unicode="&#xb3;" />
<glyph unicode="&#xb4;" horiz-adv-x="434" d="M45 1534q72 25 145.5 52.5t151.5 23.5l47 -2q-14 98 -67 98q-42 0 -109.5 -51t-105 -80t-62.5 -41z" />
<glyph unicode="&#xb6;" horiz-adv-x="1042" d="M45 1094.5q0 -111.5 35 -194.5t96 -144q133 -136 318 -140v-911h-134q-8 0 -8 -8v-57q0 -8 8 -9h224v1848h186v-455l-2 -938v-455h219q8 0 8 9v57q0 8 -8 8l-131 -2v1774h133q8 0 8 8v53q0 8 -8 8h-397q-383 0 -504 -251q-43 -89 -43 -200.5z" />
<glyph unicode="&#xb7;" horiz-adv-x="264" d="M45 795.5q0 -33.5 19.5 -68.5t55.5 -35t67.5 25.5t31.5 62.5t-26.5 70t-64.5 33t-60.5 -27t-22.5 -60.5z" />
<glyph unicode="&#xb8;" horiz-adv-x="360" d="M45 -254q31 -14 69 -14t73.5 16t64.5 43t46 62.5t17 79.5t-35.5 67t-63.5 23q-39 0 -64 -5l114 115l-18 2q-41 0 -98 -55q-23 -21 -44.5 -43.5t-44.5 -34.5q55 -2 99.5 -36t44.5 -94t-44 -94t-102 -34z" />
<glyph unicode="&#xb9;" />
<glyph unicode="&#xba;" horiz-adv-x="741" d="M45 1116q0 -124 73 -215q82 -102 197 -102q31 0 59.5 9t72.5 21t92.5 32t83 49.5t54 75.5t19.5 114t-23.5 127t-64.5 105q-91 102 -223 102q-137 0 -238.5 -88.5t-101.5 -229.5zM147 1146.5q0 108.5 57.5 176.5t162.5 68q98 0 163 -87q54 -75 54 -177q0 -42 -12.5 -88 t-35.5 -87q-52 -96 -135 -96q-111 0 -186 95q-68 87 -68 195.5z" />
<glyph unicode="&#xbb;" horiz-adv-x="784" d="M45 1079l262 -266q-16 -25 -56 -73t-82 -100q-107 -132 -110 -165l4 -6q258 236 357 344q-154 193 -303 338zM362 1071q128 -112 267 -264q-20 -25 -60.5 -71t-82.5 -97q-102 -124 -113 -170q244 214 366 344q-141 180 -313 338q-5 -7 -64 -80z" />
<glyph unicode="&#xbf;" horiz-adv-x="720" d="M45 352q0 -103 109 -182q103 -74 208 -74q110 0 201 48q47 24 80 63t33 82q0 61 -39 127q4 -86 -73 -174t-165 -88q-77 0 -143 84q-63 79 -63 144.5t23.5 124t58 117t76.5 113t77 99.5t58.5 76.5t23.5 48.5t-13.5 42t-34.5 49q-50 58 -81 68q29 -41 29 -91t-27 -104.5 t-68 -110.5t-88 -113.5t-88 -116.5q-94 -134 -94 -232zM317 1347.5q0 -32.5 20.5 -65.5t54.5 -33t61.5 21.5t27.5 56.5t-23.5 67.5t-59.5 32.5t-58.5 -23.5t-22.5 -56z" />
<glyph unicode="&#xc4;" horiz-adv-x="1613" d="M46 7q1 -7 7 -7q161 14 234 14l174 -10q18 0 35 -2v16q-111 14 -111 72q0 81 117 396q26 71 41 106h434l201 -522l-111 -52q-6 -4 -4 -11t10 -5t23 2q14 0 83 6t158.5 6t229.5 -14l2 16q-163 46 -211 132q-126 229 -232 495q-145 364 -222.5 578.5t-92 250t-22 56 t-13.5 20.5t-8 -6q-136 -362 -207 -565q-194 -560 -293 -799q-57 -137 -217 -164q-6 -2 -5 -9zM477 1599q0 -33 23.5 -61.5t56.5 -28.5t53.5 23.5t20.5 54.5t-20.5 60.5t-52.5 29.5t-56.5 -22.5t-24.5 -55.5zM569 680q43 121 79 237.5t60.5 191.5t34 102.5t19.5 56.5 l180 -588h-373zM897 1597q0 -31 22.5 -59.5t56.5 -28.5t54.5 23.5t20.5 57.5t-22.5 60.5t-56.5 26.5t-54.5 -24.5t-20.5 -55.5z" />
<glyph unicode="&#xc5;" horiz-adv-x="423" d="M45 1587q0 -43 43 -71q34 -21 70.5 -21t60.5 12q60 4 96 29q64 45 64 102t-45 84t-87 27t-77 -10t-62 -31q-63 -46 -63 -121zM123 1619q0 34 24.5 53.5t54.5 19.5t57.5 -18.5t27.5 -47.5t-22.5 -58.5t-51.5 -29.5t-59.5 23.5t-30.5 57.5z" />
<glyph unicode="&#xc7;" horiz-adv-x="372" d="M47 -242q-2 -6 4 -10q31 -14 71 -14t77 17.5t65.5 45t46 64t17.5 83.5t-38 71t-87 24h-21l74 72q4 4 2 9q-3 7 -15.5 7t-23.5 2l4 8q4 4 -2 9.5t-10 0.5q-37 -37 -63 -57q-50 -37 -70 -59q-28 -31 -8 -31q53 -2 93 -31.5t40 -86t-40 -88.5t-93 -32l-15 2q-6 0 -8 -6z" />
<glyph unicode="&#xc9;" horiz-adv-x="446" d="M46 1518.5q3 -7.5 9 -2.5l49 16q59 20 120 41.5t122 17.5l47 -2q8 0 8 10q-15 103 -75 103q-48 0 -191 -111q-23 -16 -42 -31.5t-44 -29.5q-6 -4 -3 -11.5z" />
<glyph unicode="&#xd0;" />
<glyph unicode="&#xd1;" horiz-adv-x="622" d="M47 1530q-2 -4 4 -7t10 1q47 73 121 73q47 0 103 -29q98 -50 141 -50t65.5 14t38.5 36q27 34 48 95l-15 6q-45 -61 -114 -61q-44 0 -101 26q-104 49 -146 49t-66.5 -14t-41.5 -37q-24 -33 -47 -102z" />
<glyph unicode="&#xd6;" horiz-adv-x="1675" d="M45 696q0 -173 131 -346q125 -165 305 -270q188 -109 352.5 -109t307.5 55.5t251.5 155t173 235.5t64.5 306t-64.5 324.5t-178 269.5t-267 180.5t-332.5 65.5h-18q-8 0 -16 -2q-197 -41 -332 -105.5t-219 -165.5q-158 -191 -158 -594zM233 820q0 136 39 256t115 209 q166 194 440 194q152 0 268.5 -68t195.5 -176.5t120 -243.5t41 -270t-38 -255t-112 -211q-164 -200 -436 -200q-152 0 -269.5 69t-198.5 177.5t-123 245.5t-42 273zM592 1303.5q0 -31.5 23.5 -61.5t56.5 -30t54.5 23.5t21.5 55.5t-19.5 60.5t-53.5 28.5t-58.5 -22.5 t-24.5 -54zM924 1303q0 -31 22.5 -61t54.5 -30q33 0 54.5 23.5t21.5 55.5t-20.5 60.5t-54.5 28.5t-56 -23.5t-22 -53.5z" />
<glyph unicode="&#xdc;" horiz-adv-x="1595" d="M46 1512.5q-1 -7.5 5 -9.5q76 -18 120 -52t44 -118l-2 -131l-2 -289q0 -439 22 -516q62 -187 232 -306q171 -120 366 -120q259 0 423 184q157 177 157 437v743q0 59 39 107.5t100 58.5l-2 17h-24l-178 2h-143.5t-96.5 4q-6 0 -7 -7.5t5 -9.5q80 -12 122 -51t42 -134v-200 l4 -420v-204t-34 -178t-92 -134q-122 -118 -312 -118t-310 114q-125 119 -125 303v213l4 424v213q0 68 93 133q24 17 47 29q6 4 4 10t-25.5 5t-63.5 -1h-81q-140 0 -324 9q-6 0 -7 -7.5zM588 1600.5q0 -33.5 33.5 -60.5t72.5 -27q47 21 47 61t-22.5 71.5t-53 31.5t-54 -21.5 t-23.5 -55zM918 1600.5q0 -33.5 33.5 -60.5t72.5 -27q47 19 47 60t-22.5 72.5t-54.5 31.5t-54 -21.5t-22 -55z" />
<glyph unicode="&#xdd;" />
<glyph unicode="&#xde;" />
<glyph unicode="&#xdf;" horiz-adv-x="1245" d="M45 265.5q0 -40.5 18.5 -66t46.5 -41.5q50 -31 118 -31t139 23.5t130.5 65.5t97.5 101.5t38 123t-20.5 110.5t-53.5 89t-76 79t-84 71t-76.5 65.5t-64.5 64.5q-63 73 -63 148t53 125t130 50t122 -51t61 -123q2 -6 8 -6t9 6q16 106 24 207q0 4 -6 8q-129 38 -272 6 q-150 -35 -224 -130q-39 -50 -39 -108.5t20.5 -103.5t54.5 -89q53 -69 128.5 -138.5t114.5 -108.5t69 -78q68 -85 68 -139.5t-20.5 -88.5t-51.5 -58q-64 -47 -147 -47q-137 0 -191 102q-18 33 -18 76v31q0 6 -8 6t-8 -6l-13 -50q-14 -54 -14 -94.5zM612 263.5 q0 -38.5 17.5 -64t44.5 -41.5q101 -61 261 -8q153 51 227 168q38 59 38 122.5t-20.5 110.5t-53.5 89q-51 64 -125.5 125t-110.5 92.5t-64 64.5q-64 72 -64 146.5t53 124.5t130 50t122 -51t61 -123q2 -6 9 -6q6 0 8 6q16 106 24 207q0 4 -6 8q-129 38 -272 6 q-148 -34 -223 -130q-39 -50 -39 -108.5t20.5 -103.5t54.5 -89q52 -68 127.5 -138t114.5 -109t68 -78q67 -86 67 -140t-20.5 -88t-50.5 -58q-62 -47 -146 -47q-137 0 -192 102q-17 33 -17 76v31q0 6 -8 6t-8 -6l-12 -50q-15 -58 -15 -96.5z" />
<glyph unicode="&#xe4;" horiz-adv-x="1214" d="M46 158q1 -8 24 -5q71 9 147 9q64 0 162 -10v16q-25 4 -51.5 13t-26.5 53t115 354h317l146 -381l-80 -39q-6 -4 -4 -10t28.5 -4t73.5 6t79 4q51 0 82 -3q79 -7 111 -3v16q-106 9 -149 92q-117 221 -208 452.5t-138 361t-58.5 157t-17.5 44.5t-12 17t-8 -6 q-39 -102 -74 -203.5t-80 -228.5q-108 -305 -215 -575v2q-45 -104 -158 -119q-6 -2 -5 -10zM358 1377q0 -32 24 -61.5t57.5 -29.5t54 24.5t20.5 54.5t-20.5 59.5t-53.5 29.5t-57.5 -22.5t-24.5 -54.5zM438 655q39 111 71 214.5t66 211.5l127 -426h-264zM696 1377 q0 -32 22.5 -60.5t56.5 -28.5t55.5 23.5t21.5 54.5t-20.5 59.5t-55.5 28.5t-57.5 -22.5t-22.5 -54.5z" />
<glyph unicode="&#xe6;" horiz-adv-x="1372" d="M45 131h381q-35 10 -66.5 31.5t-31.5 64.5q0 65 97 205q38 55 75 110.5t53 102.5h276v-362q0 -101 -43 -133q-18 -13 -49 -13q129 -4 256 -10t256 -6q35 0 49.5 22.5t19.5 54t4 65t5 56.5q-16 -72 -65.5 -112.5t-111.5 -40.5t-117.5 23.5t-84.5 72.5v383q41 -6 80 -2 t86 4t72.5 -14.5t37 -32.5t15.5 -37.5t14 -27.5q0 53 6.5 102t12.5 100q-62 -39 -92 -39h-232v508q37 -4 74 0t89.5 4t99 -26.5t44.5 -104.5q23 11 28 66q9 97 9 129q-56 -19 -194 -19l-246 5q-31 0 -81 -92q-11 -21 -34.5 -61t-72 -131t-103.5 -190.5t-116.5 -200 t-126.5 -188.5q-140 -192 -273 -266zM580 700q163 292 245 424v-424h-245z" />
<glyph unicode="&#xf6;" horiz-adv-x="1261" d="M45 664q0 -98 56.5 -194.5t142.5 -172.5t189.5 -123t210 -47t212 41t185 114.5t128 175t48.5 226.5t-48.5 244t-132.5 206t-196.5 135t-243.5 38l-27 -2q-293 -63 -407 -202q-117 -142 -117 -439zM186 758q0 199 115 338q118 143 322 143q208 0 339 -178 q117 -161 117 -380q0 -99 -27.5 -187t-81.5 -155q-119 -146 -319 -146q-207 0 -343 181q-122 164 -122 384zM391 1397q0 -33 23.5 -61.5t57.5 -28.5t53.5 23t19.5 54t-19.5 61t-52.5 30t-57.5 -22.5t-24.5 -55.5zM727 1397q0 -33 23.5 -60.5t57.5 -27.5t55.5 22t21.5 54 t-20.5 61t-54.5 29t-58.5 -22.5t-24.5 -55.5z" />
<glyph unicode="&#xf8;" horiz-adv-x="1404" d="M45 697q0 -254 201 -433l-86 -84l33 -33l88 89q180 -142 405 -142q264 0 457 140q217 157 217 407q0 133 -56.5 253t-154.5 210l90 88l-33 33l-92 -92q-170 137 -385 137q-272 0 -469 -152q-96 -74 -155.5 -182.5t-59.5 -238.5zM184 719q0 222 144 359q139 134 364 134 q216 0 359 -143l-734 -733q-133 165 -133 383zM348 303l735 733q140 -160 140 -391q0 -222 -137 -361t-361 -139q-227 0 -377 158z" />
<glyph unicode="&#xfc;" horiz-adv-x="1202" d="M46 1260.5q-1 -7.5 5 -9.5q55 -14 87 -38.5t32 -84.5v-206l-2 -199q0 -245 19.5 -299t65.5 -111t105 -100q125 -90 269 -90q192 0 311 134q117 132 117 325v548q0 43 28.5 77t73.5 42l-2 17q-37 2 -74 1t-71 -1l-68 -2q-55 0 -113 6q-6 0 -7 -7.5t5 -9.5q57 -10 88 -37.5 t31 -87.5l4 -618q0 -141 -90 -227t-231 -86q-137 0 -228 85q-90 84 -90 222l4 626q0 37 34 69t67 48q6 4 4 10.5t-21.5 5.5t-50.5 -1h-63q-115 0 -232 6q-6 0 -7 -7.5zM381 1397q0 -33 23.5 -61.5t57.5 -28.5t53.5 23t19.5 54t-19.5 61t-52.5 30t-57.5 -22.5t-24.5 -55.5z M717 1397q0 -33 23.5 -60.5t57.5 -27.5t54 22t20 54t-19 61t-53 29t-58.5 -22.5t-24.5 -55.5z" />
<glyph unicode="&#x2c6;" horiz-adv-x="530" d="M45 1518q53 35 109.5 66.5t121.5 31.5q97 0 150 -109q45 45 59 66q-103 83 -225 160q-139 -119 -215 -215z" />
<glyph unicode="&#x2dc;" horiz-adv-x="610" d="M45 1538q58 78 127 78q47 0 105.5 -27.5t89 -40t62.5 -12.5t53.5 13.5t37.5 34.5q25 33 45 91q-52 -65 -123 -65q-42 0 -101.5 25.5t-91.5 38t-64 12.5t-53 -14.5t-38 -35.5q-29 -36 -49 -98z" />
<glyph unicode="&#x2000;" horiz-adv-x="882" />
<glyph unicode="&#x2001;" horiz-adv-x="1765" />
<glyph unicode="&#x2002;" horiz-adv-x="882" />
<glyph unicode="&#x2003;" horiz-adv-x="1765" />
<glyph unicode="&#x2004;" horiz-adv-x="588" />
<glyph unicode="&#x2005;" horiz-adv-x="441" />
<glyph unicode="&#x2006;" horiz-adv-x="294" />
<glyph unicode="&#x2007;" horiz-adv-x="294" />
<glyph unicode="&#x2008;" horiz-adv-x="220" />
<glyph unicode="&#x2009;" horiz-adv-x="353" />
<glyph unicode="&#x200a;" horiz-adv-x="98" />
<glyph unicode="&#x2010;" horiz-adv-x="622" d="M45 635q0 -12 10 -8q101 39 289 65q150 25 234 49v17q-30 10 -228 10h-270q-8 0 -8 -6q-18 -52 -27 -127z" />
<glyph unicode="&#x2011;" horiz-adv-x="622" d="M45 635q0 -12 10 -8q101 39 289 65q150 25 234 49v17q-30 10 -228 10h-270q-8 0 -8 -6q-18 -52 -27 -127z" />
<glyph unicode="&#x2012;" horiz-adv-x="622" d="M45 635q0 -12 10 -8q101 39 289 65q150 25 234 49v17q-30 10 -228 10h-270q-8 0 -8 -6q-18 -52 -27 -127z" />
<glyph unicode="&#x2013;" horiz-adv-x="929" d="M45 780h840v74h-840v-74z" />
<glyph unicode="&#x2014;" horiz-adv-x="1771" d="M45 780h1681v74h-1681v-74z" />
<glyph unicode="&#x2018;" horiz-adv-x="256" d="M45 1202q0 -102 129 -102h27q-47 72 -47 147.5t20.5 139t36.5 129.5q-57 -53 -96 -120q-70 -120 -70 -194z" />
<glyph unicode="&#x2019;" horiz-adv-x="253" d="M45 1100q104 104 149 230q15 44 15 88t-32 72t-79 26l-43 -3q45 -74 45 -147.5t-19.5 -138t-35.5 -127.5z" />
<glyph unicode="&#x201a;" horiz-adv-x="253" d="M45 -53q104 104 149 230q15 44 15 88t-32 72t-79 25l-43 -2q45 -74 45 -147.5t-19.5 -138t-35.5 -127.5z" />
<glyph unicode="&#x201c;" horiz-adv-x="473" d="M45 1202q0 -102 127 -102h27q-45 70 -45 146.5t19.5 140t35.5 129.5q-100 -93 -149 -231q-15 -44 -15 -83zM264 1202q0 -102 127 -102h27q-45 74 -45 148.5t19.5 138t35.5 129.5q-104 -104 -148 -231q-16 -44 -16 -83z" />
<glyph unicode="&#x201d;" horiz-adv-x="473" d="M45 1100q104 104 149 230q15 44 15 88t-32 72t-79 26l-43 -3q45 -74 45 -147.5t-19.5 -138t-35.5 -127.5zM264 1100q57 53 95 119.5t53.5 110.5t15.5 87t-30.5 73t-80.5 26l-43 -3q80 -123 28 -287q-21 -63 -38 -126z" />
<glyph unicode="&#x201e;" horiz-adv-x="473" d="M45 -53q104 104 149 230q15 44 15 88t-32 72t-79 25l-43 -2q45 -74 45 -147.5t-19.5 -138t-35.5 -127.5zM264 -53q57 53 95 119.5t53.5 110.5t15.5 87t-30.5 73t-80.5 25l-43 -2q80 -123 28 -286q-21 -64 -38 -127z" />
<glyph unicode="&#x2022;" horiz-adv-x="391" d="M47 760q2 -6 29.5 -9t60.5 -24.5t55 -55.5q38 -57 62 -159q2 -6 7 -6t9 4q76 157 76 288q0 49 -10 72l-10 4q-121 -29 -275 -104q-6 -4 -4 -10z" />
<glyph unicode="&#x2026;" horiz-adv-x="1386" d="M45 234q0 -34 18.5 -68.5t55.5 -34.5t68.5 25.5t31.5 63.5t-26.5 70t-65.5 32t-60.5 -27t-21.5 -61zM606 234q0 -34 18.5 -68.5t55.5 -34.5t68.5 25.5t31.5 63.5t-26.5 70t-65.5 32t-60.5 -27t-21.5 -61zM1167 234q0 -34 18.5 -68.5t55.5 -34.5t68.5 25.5t31.5 63.5 t-26.5 70t-65.5 32t-60.5 -27t-21.5 -61z" />
<glyph unicode="&#x202f;" horiz-adv-x="353" />
<glyph unicode="&#x2039;" horiz-adv-x="458" d="M45 807q179 -224 305 -338q28 40 64 72q-258 258 -258 282q0 17 78 110q152 179 172 218q-214 -186 -361 -344z" />
<glyph unicode="&#x203a;" horiz-adv-x="460" d="M45 1079l54 -54q204 -204 204 -226q0 -21 -78 -114q-147 -175 -170 -216q100 76 186.5 165t174.5 179q-119 161 -305 338q-30 -43 -66 -72z" />
<glyph unicode="&#x205f;" horiz-adv-x="441" />
<glyph unicode="&#x20ac;" horiz-adv-x="1695" d="M45 575h252q58 -276 265 -433q205 -156 489 -156q249 0 532 49q68 129 68 258q0 39 -9 69q-77 -171 -166 -242q-100 -79 -280 -79q-232 0 -436 155q-193 147 -271 379h1135v74h-1155q-12 54 -18 172h1173v74h-1171q12 277 197 443q180 163 460 163q190 0 320 -97 q135 -100 167 -286q36 248 39 381q-129 10 -256 33.5t-258 23.5q-342 0 -554 -157.5t-273 -503.5h-250v-74h242q-10 -86 0 -172h-242v-74z" />
<glyph unicode="&#x2122;" horiz-adv-x="1349" d="M49.5 1309q-4.5 -31 0.5 -34t9 1q39 35 90.5 45t100.5 14h4v-461q0 -23 -23.5 -26.5t-36 -3.5t-12.5 -8t6 -9q98 -10 240 -10q6 0 8 6t-3 9.5t-9 3.5t-15 5t-30 13t-19 18v461q21 -4 52 2l37 2q72 0 79 -69q0 -6 7.5 -7t9.5 5q10 52 10 127l-8 8l-293 -12q-110 0 -168 20 q-6 2 -10 -6q-22 -63 -26.5 -94zM510 831q0 -14 197 -14q6 0 7 5t-3 9q-54 40 -54 132q0 36 11 97q14 87 18 128q23 -37 35 -64.5t35 -76.5q70 -150 129 -228q8 -8 13 1t11 21.5t30 59.5t66 126t82 163l3 -2q4 -92 14 -179t20 -180q0 -12 125 -12h49q4 0 5 5t-3 9 q-85 48 -111 285q-7 62 -12 118q-16 183 -30 183q-4 0 -8 -4q-79 -110 -148 -266q-23 -49 -44 -97.5t-40 -80.5q-25 43 -66 132q-94 209 -171 312q-4 4 -8 4q-12 0 -25.5 -110.5t-23 -177t-22.5 -125.5q-30 -136 -77 -164q-4 -4 -4 -9z" />
<glyph unicode="&#xe000;" horiz-adv-x="1280" d="M0 0v1280h1280v-1280h-1280z" />
</font>
</defs>
</svg>
